<svg width="402" height="874" viewBox="0 0 402 874" fill="none" xmlns="http://www.w3.org/2000/svg">
<g clip-path="url(#clip0_282_1075)">
<rect width="402" height="874" fill="#0F172A"/>
<g opacity="0.2">
<rect opacity="0.3" x="134" y="798.5" width="134" height="5" rx="2.5" fill="white"/>
</g>
<g opacity="0.2">
<path d="M27.01 23.63C27.0847 24.0407 27.2527 24.358 27.514 24.582C27.7847 24.7967 28.144 24.904 28.592 24.904C29.1707 24.904 29.5907 24.666 29.852 24.19C30.1133 23.7047 30.244 22.8927 30.244 21.754C30.0293 22.0527 29.726 22.286 29.334 22.454C28.9513 22.622 28.536 22.706 28.088 22.706C27.4907 22.706 26.9493 22.5847 26.464 22.342C25.988 22.09 25.61 21.7213 25.33 21.236C25.05 20.7413 24.91 20.144 24.91 19.444C24.91 18.408 25.218 17.5867 25.834 16.98C26.45 16.364 27.29 16.056 28.354 16.056C29.6793 16.056 30.6127 16.4807 31.154 17.33C31.7047 18.1793 31.98 19.458 31.98 21.166C31.98 22.3793 31.8727 23.3733 31.658 24.148C31.4527 24.9227 31.0933 25.5107 30.58 25.912C30.076 26.3133 29.3853 26.514 28.508 26.514C27.8173 26.514 27.2293 26.3833 26.744 26.122C26.2587 25.8513 25.8853 25.5013 25.624 25.072C25.372 24.6333 25.2273 24.1527 25.19 23.63H27.01ZM28.494 21.11C28.9793 21.11 29.362 20.9607 29.642 20.662C29.922 20.3633 30.062 19.962 30.062 19.458C30.062 18.9073 29.9127 18.4827 29.614 18.184C29.3247 17.876 28.928 17.722 28.424 17.722C27.92 17.722 27.5187 17.8807 27.22 18.198C26.9307 18.506 26.786 18.9167 26.786 19.43C26.786 19.9247 26.926 20.3307 27.206 20.648C27.4953 20.956 27.9247 21.11 28.494 21.11ZM34.5977 26.598C34.243 26.598 33.949 26.4907 33.7157 26.276C33.4917 26.052 33.3797 25.7767 33.3797 25.45C33.3797 25.1233 33.4917 24.8527 33.7157 24.638C33.949 24.414 34.243 24.302 34.5977 24.302C34.943 24.302 35.2277 24.414 35.4517 24.638C35.6757 24.8527 35.7877 25.1233 35.7877 25.45C35.7877 25.7767 35.6757 26.052 35.4517 26.276C35.2277 26.4907 34.943 26.598 34.5977 26.598ZM34.5977 20.802C34.243 20.802 33.949 20.6947 33.7157 20.48C33.4917 20.256 33.3797 19.9807 33.3797 19.654C33.3797 19.3273 33.4917 19.0567 33.7157 18.842C33.949 18.618 34.243 18.506 34.5977 18.506C34.943 18.506 35.2277 18.618 35.4517 18.842C35.6757 19.0567 35.7877 19.3273 35.7877 19.654C35.7877 19.9807 35.6757 20.256 35.4517 20.48C35.2277 20.6947 34.943 20.802 34.5977 20.802ZM37.0994 24.512V22.972L41.6774 16.42H43.9594V22.804H45.1914V24.512H43.9594V26.5H41.9994V24.512H37.0994ZM42.1254 18.52L39.2554 22.804H42.1254V18.52ZM46.2013 18.1V16.294H49.5753V26.5H47.5593V18.1H46.2013Z" fill="white"/>
<path fill-rule="evenodd" clip-rule="evenodd" d="M317.2 17.5324C317.2 16.8992 316.722 16.386 316.133 16.386H315.067C314.478 16.386 314 16.8992 314 17.5324V27.4676C314 28.1007 314.478 28.614 315.067 28.614H316.133C316.722 28.614 317.2 28.1007 317.2 27.4676V17.5324ZM309.766 18.8316H310.833C311.422 18.8316 311.899 19.3572 311.899 20.0055V27.4401C311.899 28.0884 311.422 28.614 310.833 28.614H309.766C309.177 28.614 308.699 28.0884 308.699 27.4401V20.0055C308.699 19.3572 309.177 18.8316 309.766 18.8316ZM305.434 21.481H304.367C303.778 21.481 303.301 22.0132 303.301 22.6698V27.4251C303.301 28.0817 303.778 28.614 304.367 28.614H305.434C306.023 28.614 306.501 28.0817 306.501 27.4251V22.6698C306.501 22.0132 306.023 21.481 305.434 21.481ZM300.133 23.9266H299.067C298.478 23.9266 298 24.4512 298 25.0984V27.4421C298 28.0893 298.478 28.614 299.067 28.614H300.133C300.722 28.614 301.2 28.0893 301.2 27.4421V25.0984C301.2 24.4512 300.722 23.9266 300.133 23.9266Z" fill="white"/>
<path fill-rule="evenodd" clip-rule="evenodd" d="M333.571 17.8022C336.058 17.8023 338.45 18.7244 340.253 20.3779C340.389 20.5055 340.606 20.5039 340.739 20.3743L342.037 19.1108C342.104 19.045 342.142 18.956 342.142 18.8633C342.141 18.7706 342.102 18.682 342.034 18.617C337.303 14.2423 329.839 14.2423 325.108 18.617C325.04 18.6819 325.001 18.7705 325 18.8632C324.999 18.9559 325.037 19.045 325.105 19.1108L326.403 20.3743C326.536 20.5041 326.753 20.5057 326.889 20.3779C328.692 18.7243 331.084 17.8022 333.571 17.8022ZM333.568 22.0225C334.925 22.0224 336.234 22.5342 337.24 23.4583C337.376 23.5894 337.591 23.5866 337.723 23.4519L339.011 22.1326C339.078 22.0634 339.116 21.9695 339.115 21.8719C339.114 21.7744 339.075 21.6813 339.005 21.6135C335.942 18.7227 331.197 18.7227 328.133 21.6135C328.064 21.6813 328.024 21.7744 328.023 21.872C328.023 21.9696 328.06 22.0635 328.128 22.1326L329.415 23.4519C329.548 23.5866 329.762 23.5894 329.898 23.4583C330.904 22.5348 332.212 22.0231 333.568 22.0225ZM336.092 24.816C336.094 24.9214 336.057 25.023 335.99 25.0968L333.813 27.5515C333.749 27.6236 333.662 27.6642 333.572 27.6642C333.481 27.6642 333.394 27.6236 333.33 27.5515L331.153 25.0968C331.086 25.0229 331.049 24.9213 331.051 24.816C331.053 24.7106 331.094 24.6108 331.164 24.5402C332.554 23.2263 334.59 23.2263 335.98 24.5402C336.05 24.6109 336.09 24.7107 336.092 24.816Z" fill="white"/>
<path d="M368.5 16C370.55 16 371.576 16.0003 372.382 16.3428C373.406 16.7782 374.222 17.5937 374.657 18.6182C375 19.4242 375 20.4495 375 22.5C375 24.5505 375 25.5758 374.657 26.3818L374.571 26.5713C374.119 27.5067 373.342 28.249 372.382 28.6572L372.228 28.7178C371.443 28.9999 370.422 29 368.5 29H356.5L355.142 28.9951C353.951 28.9791 353.223 28.9141 352.618 28.6572C351.658 28.249 350.881 27.5067 350.429 26.5713L350.343 26.3818C350 25.5758 350 24.5505 350 22.5C350 20.5779 350 19.5567 350.282 18.7725L350.343 18.6182C350.751 17.6577 351.493 16.8808 352.429 16.4287L352.618 16.3428C353.223 16.0859 353.951 16.0209 355.142 16.0049L356.5 16H368.5ZM356.5 17C355.461 17 354.733 17.0002 354.162 17.04C353.601 17.0792 353.268 17.1531 353.01 17.2627C352.223 17.5968 351.597 18.2235 351.263 19.0098C351.153 19.2678 351.079 19.6012 351.04 20.1621C351 20.7326 351 21.4608 351 22.5C351 23.5392 351 24.2674 351.04 24.8379C351.079 25.3988 351.153 25.7322 351.263 25.9902C351.597 26.7765 352.223 27.4032 353.01 27.7373C353.268 27.8469 353.601 27.9208 354.162 27.96C354.733 27.9998 355.461 28 356.5 28H368.5C369.539 28 370.267 27.9998 370.838 27.96C371.399 27.9208 371.732 27.8469 371.99 27.7373C372.777 27.4032 373.403 26.7765 373.737 25.9902C373.847 25.7322 373.921 25.3988 373.96 24.8379C374 24.2674 374 23.5392 374 22.5C374 21.4608 374 20.7326 373.96 20.1621C373.921 19.6012 373.847 19.2678 373.737 19.0098C373.403 18.2235 372.777 17.5968 371.99 17.2627C371.732 17.1531 371.399 17.0792 370.838 17.04C370.267 17.0002 369.539 17 368.5 17H356.5ZM369 18C370.4 18 371.1 18.0001 371.635 18.2725C372.105 18.5121 372.488 18.8948 372.728 19.3652C373 19.9 373 20.6 373 22V23C373 24.4 373 25.1 372.728 25.6348C372.488 26.1052 372.105 26.4879 371.635 26.7275C371.1 26.9999 370.4 27 369 27H356C354.6 27 353.9 26.9999 353.365 26.7275C352.895 26.4879 352.512 26.1052 352.272 25.6348C352 25.1 352 24.4 352 23V22C352 20.6 352 19.9 352.272 19.3652C352.512 18.8948 352.895 18.5121 353.365 18.2725C353.9 18.0001 354.6 18 356 18H369ZM376 20.5C376.805 20.8452 377.328 21.6485 377.328 22.5381C377.328 23.4275 376.805 24.23 376 24.5752V20.5Z" fill="white"/>
</g>
<g opacity="0.2">
<g filter="url(#filter0_d_282_1075)">
<path d="M128.19 97L124.2 89.38H124.17V97H117.51V75.76H127.41C129.13 75.76 130.6 76.07 131.82 76.69C133.04 77.29 133.95 78.12 134.55 79.18C135.17 80.22 135.48 81.4 135.48 82.72C135.48 84.14 135.08 85.4 134.28 86.5C133.5 87.6 132.37 88.39 130.89 88.87L135.51 97H128.19ZM124.17 84.94H126.81C127.45 84.94 127.93 84.8 128.25 84.52C128.57 84.22 128.73 83.76 128.73 83.14C128.73 82.58 128.56 82.14 128.22 81.82C127.9 81.5 127.43 81.34 126.81 81.34H124.17V84.94ZM154.977 83.05C154.977 84.39 154.667 85.61 154.047 86.71C153.427 87.79 152.507 88.65 151.287 89.29C150.087 89.93 148.627 90.25 146.907 90.25H144.267V97H137.607V75.76H146.907C149.507 75.76 151.497 76.42 152.877 77.74C154.277 79.06 154.977 80.83 154.977 83.05ZM146.157 85C147.537 85 148.227 84.35 148.227 83.05C148.227 81.75 147.537 81.1 146.157 81.1H144.267V85H146.157ZM165.4 97.21C162.86 97.21 160.76 96.62 159.1 95.44C157.46 94.24 156.57 92.49 156.43 90.19H163.51C163.61 91.41 164.15 92.02 165.13 92.02C165.49 92.02 165.79 91.94 166.03 91.78C166.29 91.6 166.42 91.33 166.42 90.97C166.42 90.47 166.15 90.07 165.61 89.77C165.07 89.45 164.23 89.09 163.09 88.69C161.73 88.21 160.6 87.74 159.7 87.28C158.82 86.82 158.06 86.15 157.42 85.27C156.78 84.39 156.47 83.26 156.49 81.88C156.49 80.5 156.84 79.33 157.54 78.37C158.26 77.39 159.23 76.65 160.45 76.15C161.69 75.65 163.08 75.4 164.62 75.4C167.22 75.4 169.28 76 170.8 77.2C172.34 78.4 173.15 80.09 173.23 82.27H166.06C166.04 81.67 165.89 81.24 165.61 80.98C165.33 80.72 164.99 80.59 164.59 80.59C164.31 80.59 164.08 80.69 163.9 80.89C163.72 81.07 163.63 81.33 163.63 81.67C163.63 82.15 163.89 82.55 164.41 82.87C164.95 83.17 165.8 83.54 166.96 83.98C168.3 84.48 169.4 84.96 170.26 85.42C171.14 85.88 171.9 86.52 172.54 87.34C173.18 88.16 173.5 89.19 173.5 90.43C173.5 91.73 173.18 92.9 172.54 93.94C171.9 94.96 170.97 95.76 169.75 96.34C168.53 96.92 167.08 97.21 165.4 97.21Z" fill="white"/>
<path d="M194.558 93.79H187.478L186.428 97H179.438L187.208 75.76H194.888L202.628 97H195.608L194.558 93.79ZM192.938 88.78L191.018 82.87L189.098 88.78H192.938ZM214.821 97L210.831 89.38H210.801V97H204.141V75.76H214.041C215.761 75.76 217.231 76.07 218.451 76.69C219.671 77.29 220.581 78.12 221.181 79.18C221.801 80.22 222.111 81.4 222.111 82.72C222.111 84.14 221.711 85.4 220.911 86.5C220.131 87.6 219.001 88.39 217.521 88.87L222.141 97H214.821ZM210.801 84.94H213.441C214.081 84.94 214.561 84.8 214.881 84.52C215.201 84.22 215.361 83.76 215.361 83.14C215.361 82.58 215.191 82.14 214.851 81.82C214.531 81.5 214.061 81.34 213.441 81.34H210.801V84.94ZM230.898 81.07V83.68H237.498V88.69H230.898V91.69H238.398V97H224.238V75.76H238.398V81.07H230.898ZM261.278 97H254.618L247.568 86.32V97H240.908V75.76H247.568L254.618 86.62V75.76H261.278V97ZM277.907 93.79H270.827L269.777 97H262.787L270.557 75.76H278.237L285.977 97H278.957L277.907 93.79ZM276.287 88.78L274.367 82.87L272.447 88.78H276.287Z" fill="#7C3AED"/>
</g>
</g>
<rect x="82.5" y="290.5" width="237" height="293" rx="19.5" fill="#1E293B"/>
<rect x="82.5" y="290.5" width="237" height="293" rx="19.5" stroke="url(#paint0_linear_282_1075)"/>
<g filter="url(#filter1_d_282_1075)">
<path d="M140.572 374.7V377.54H145.152V380.18H140.572V383.26H145.752V386H137.152V371.96H145.752V374.7H140.572ZM160.532 386H157.112L151.392 377.34V386H147.972V371.96H151.392L157.112 380.66V371.96H160.532V386ZM168.271 371.96C169.751 371.96 171.045 372.253 172.151 372.84C173.258 373.427 174.111 374.253 174.711 375.32C175.325 376.373 175.631 377.593 175.631 378.98C175.631 380.353 175.325 381.573 174.711 382.64C174.111 383.707 173.251 384.533 172.131 385.12C171.025 385.707 169.738 386 168.271 386H163.011V371.96H168.271ZM168.051 383.04C169.345 383.04 170.351 382.687 171.071 381.98C171.791 381.273 172.151 380.273 172.151 378.98C172.151 377.687 171.791 376.68 171.071 375.96C170.351 375.24 169.345 374.88 168.051 374.88H166.431V383.04H168.051ZM197.681 371.96V386H194.261V377.58L191.121 386H188.361L185.201 377.56V386H181.781V371.96H185.821L189.761 381.68L193.661 371.96H197.681ZM208.88 383.52H203.64L202.8 386H199.22L204.3 371.96H208.26L213.34 386H209.72L208.88 383.52ZM208 380.88L206.26 375.74L204.54 380.88H208ZM224.986 371.96V374.7H221.266V386H217.846V374.7H214.126V371.96H224.986ZM226.123 378.96C226.123 377.573 226.423 376.34 227.023 375.26C227.623 374.167 228.456 373.32 229.523 372.72C230.603 372.107 231.823 371.8 233.183 371.8C234.85 371.8 236.276 372.24 237.463 373.12C238.65 374 239.443 375.2 239.843 376.72H236.083C235.803 376.133 235.403 375.687 234.883 375.38C234.376 375.073 233.796 374.92 233.143 374.92C232.09 374.92 231.236 375.287 230.583 376.02C229.93 376.753 229.603 377.733 229.603 378.96C229.603 380.187 229.93 381.167 230.583 381.9C231.236 382.633 232.09 383 233.143 383C233.796 383 234.376 382.847 234.883 382.54C235.403 382.233 235.803 381.787 236.083 381.2H239.843C239.443 382.72 238.65 383.92 237.463 384.8C236.276 385.667 234.85 386.1 233.183 386.1C231.823 386.1 230.603 385.8 229.523 385.2C228.456 384.587 227.623 383.74 227.023 382.66C226.423 381.58 226.123 380.347 226.123 378.96ZM254.097 371.96V386H250.677V380.22H245.357V386H241.937V371.96H245.357V377.46H250.677V371.96H254.097ZM260.666 371.18C262.093 371.18 263.233 371.553 264.086 372.3C264.953 373.047 265.386 374.1 265.386 375.46C265.386 376.713 264.973 377.693 264.146 378.4C263.333 379.093 262.253 379.447 260.906 379.46L260.806 380.96H257.806L257.706 377.24H258.906C259.933 377.24 260.713 377.113 261.246 376.86C261.793 376.607 262.066 376.147 262.066 375.48C262.066 375.013 261.94 374.647 261.686 374.38C261.433 374.113 261.08 373.98 260.626 373.98C260.146 373.98 259.773 374.12 259.506 374.4C259.24 374.667 259.106 375.033 259.106 375.5H255.886C255.86 374.687 256.026 373.953 256.386 373.3C256.76 372.647 257.306 372.133 258.026 371.76C258.76 371.373 259.64 371.18 260.666 371.18ZM259.346 386.16C258.746 386.16 258.253 385.987 257.866 385.64C257.493 385.28 257.306 384.84 257.306 384.32C257.306 383.787 257.493 383.34 257.866 382.98C258.253 382.62 258.746 382.44 259.346 382.44C259.933 382.44 260.413 382.62 260.786 382.98C261.173 383.34 261.366 383.787 261.366 384.32C261.366 384.84 261.173 385.28 260.786 385.64C260.413 385.987 259.933 386.16 259.346 386.16Z" fill="#D500F9"/>
</g>
<g clip-path="url(#clip1_282_1075)">
<path d="M139.5 427.387H143.873V436.053H139.5V427.387ZM159.5 428.053C159.496 427.709 159.357 427.38 159.113 427.138C158.868 426.896 158.538 426.76 158.193 426.76H152.62V424.907H153.873V424.213C153.86 423.04 153.86 422.373 153.66 421.32C153.313 419.56 152.567 419.333 152.153 419.333C151.567 419.333 151.22 419.853 151.22 420.373V420.613C151.22 424.613 149.073 427.92 145.753 428V435.427H145.9C146.833 435.427 147.46 435.453 148.18 435.76L148.407 435.867C149.3 436.253 150.327 436.667 152.007 436.667H156.38C156.607 436.667 156.7 436.64 156.753 436.587C157.26 436.413 157.62 435.933 157.62 435.373C157.62 434.88 157.327 434.44 156.913 434.227H156.94C157.66 434.227 158.247 433.64 158.247 432.933C158.247 432.44 157.953 432 157.54 431.787H157.567C158.287 431.787 158.873 431.2 158.873 430.493C158.873 430 158.58 429.56 158.167 429.347H158.193C158.9 429.347 159.5 428.773 159.5 428.053Z" fill="url(#paint1_linear_282_1075)"/>
</g>
<path d="M190.496 420.96L186.836 435H182.696L180.456 425.76L178.136 435H173.996L170.436 420.96H174.096L176.116 431.18L178.616 420.96H182.376L184.776 431.18L186.816 420.96H190.496ZM199.371 435L196.451 429.7H195.631V435H192.211V420.96H197.951C199.057 420.96 199.997 421.153 200.771 421.54C201.557 421.927 202.144 422.46 202.531 423.14C202.917 423.807 203.111 424.553 203.111 425.38C203.111 426.313 202.844 427.147 202.311 427.88C201.791 428.613 201.017 429.133 199.991 429.44L203.231 435H199.371ZM195.631 427.28H197.751C198.377 427.28 198.844 427.127 199.151 426.82C199.471 426.513 199.631 426.08 199.631 425.52C199.631 424.987 199.471 424.567 199.151 424.26C198.844 423.953 198.377 423.8 197.751 423.8H195.631V427.28ZM213.998 432.52H208.758L207.918 435H204.338L209.418 420.96H213.378L218.458 435H214.838L213.998 432.52ZM213.118 429.88L211.378 424.74L209.658 429.88H213.118ZM230.704 425.48C230.704 426.293 230.517 427.04 230.144 427.72C229.77 428.387 229.197 428.927 228.424 429.34C227.65 429.753 226.69 429.96 225.544 429.96H223.424V435H220.004V420.96H225.544C226.664 420.96 227.61 421.153 228.384 421.54C229.157 421.927 229.737 422.46 230.124 423.14C230.51 423.82 230.704 424.6 230.704 425.48ZM225.284 427.24C225.937 427.24 226.424 427.087 226.744 426.78C227.064 426.473 227.224 426.04 227.224 425.48C227.224 424.92 227.064 424.487 226.744 424.18C226.424 423.873 225.937 423.72 225.284 423.72H223.424V427.24H225.284ZM240.082 420.96V429.36C240.082 430.2 240.289 430.847 240.702 431.3C241.116 431.753 241.722 431.98 242.522 431.98C243.322 431.98 243.936 431.753 244.362 431.3C244.789 430.847 245.002 430.2 245.002 429.36V420.96H248.422V429.34C248.422 430.593 248.156 431.653 247.622 432.52C247.089 433.387 246.369 434.04 245.462 434.48C244.569 434.92 243.569 435.14 242.462 435.14C241.356 435.14 240.362 434.927 239.482 434.5C238.616 434.06 237.929 433.407 237.422 432.54C236.916 431.66 236.662 430.593 236.662 429.34V420.96H240.082ZM261.524 425.48C261.524 426.293 261.337 427.04 260.964 427.72C260.591 428.387 260.017 428.927 259.244 429.34C258.471 429.753 257.511 429.96 256.364 429.96H254.244V435H250.824V420.96H256.364C257.484 420.96 258.431 421.153 259.204 421.54C259.977 421.927 260.557 422.46 260.944 423.14C261.331 423.82 261.524 424.6 261.524 425.48ZM256.104 427.24C256.757 427.24 257.244 427.087 257.564 426.78C257.884 426.473 258.044 426.04 258.044 425.48C258.044 424.92 257.884 424.487 257.564 424.18C257.244 423.873 256.757 423.72 256.104 423.72H254.244V427.24H256.104Z" fill="white"/>
<path d="M156.389 486L163.127 492.748L162.248 493.627L155.5 486.889L148.752 493.627L147.873 492.748L154.611 486L147.873 479.252L148.752 478.373L155.5 485.111L162.248 478.373L163.127 479.252L156.389 486Z" fill="url(#paint2_linear_282_1075)"/>
<path d="M176.357 485.96C176.357 484.573 176.657 483.34 177.257 482.26C177.857 481.167 178.691 480.32 179.757 479.72C180.837 479.107 182.057 478.8 183.417 478.8C185.084 478.8 186.511 479.24 187.697 480.12C188.884 481 189.677 482.2 190.077 483.72H186.317C186.037 483.133 185.637 482.687 185.117 482.38C184.611 482.073 184.031 481.92 183.377 481.92C182.324 481.92 181.471 482.287 180.817 483.02C180.164 483.753 179.837 484.733 179.837 485.96C179.837 487.187 180.164 488.167 180.817 488.9C181.471 489.633 182.324 490 183.377 490C184.031 490 184.611 489.847 185.117 489.54C185.637 489.233 186.037 488.787 186.317 488.2H190.077C189.677 489.72 188.884 490.92 187.697 491.8C186.511 492.667 185.084 493.1 183.417 493.1C182.057 493.1 180.837 492.8 179.757 492.2C178.691 491.587 177.857 490.74 177.257 489.66C176.657 488.58 176.357 487.347 176.357 485.96ZM200.912 490.52H195.672L194.832 493H191.252L196.332 478.96H200.292L205.372 493H201.752L200.912 490.52ZM200.032 487.88L198.292 482.74L196.572 487.88H200.032ZM219.478 493H216.058L210.338 484.34V493H206.918V478.96H210.338L216.058 487.66V478.96H219.478V493ZM221.377 485.96C221.377 484.573 221.677 483.34 222.277 482.26C222.877 481.167 223.71 480.32 224.777 479.72C225.857 479.107 227.077 478.8 228.437 478.8C230.103 478.8 231.53 479.24 232.717 480.12C233.903 481 234.697 482.2 235.097 483.72H231.337C231.057 483.133 230.657 482.687 230.137 482.38C229.63 482.073 229.05 481.92 228.397 481.92C227.343 481.92 226.49 482.287 225.837 483.02C225.183 483.753 224.857 484.733 224.857 485.96C224.857 487.187 225.183 488.167 225.837 488.9C226.49 489.633 227.343 490 228.397 490C229.05 490 229.63 489.847 230.137 489.54C230.657 489.233 231.057 488.787 231.337 488.2H235.097C234.697 489.72 233.903 490.92 232.717 491.8C231.53 492.667 230.103 493.1 228.437 493.1C227.077 493.1 225.857 492.8 224.777 492.2C223.71 491.587 222.877 490.74 222.277 489.66C221.677 488.58 221.377 487.347 221.377 485.96ZM240.611 481.7V484.54H245.191V487.18H240.611V490.26H245.791V493H237.191V478.96H245.791V481.7H240.611ZM251.431 490.36H255.911V493H248.011V478.96H251.431V490.36Z" fill="white"/>
<g opacity="0.2" filter="url(#filter2_f_282_1075)">
<circle cx="201" cy="800" r="200" fill="url(#paint3_linear_282_1075)"/>
</g>
<g opacity="0.2" filter="url(#filter3_f_282_1075)">
<circle cx="201" cy="50" r="150" fill="url(#paint4_linear_282_1075)"/>
</g>
</g>
<defs>
<filter id="filter0_d_282_1075" x="102.51" y="60.3999" width="198.467" height="51.8101" filterUnits="userSpaceOnUse" color-interpolation-filters="sRGB">
<feFlood flood-opacity="0" result="BackgroundImageFix"/>
<feColorMatrix in="SourceAlpha" type="matrix" values="0 0 0 0 0 0 0 0 0 0 0 0 0 0 0 0 0 0 127 0" result="hardAlpha"/>
<feOffset/>
<feGaussianBlur stdDeviation="7.5"/>
<feComposite in2="hardAlpha" operator="out"/>
<feColorMatrix type="matrix" values="0 0 0 0 0.145098 0 0 0 0 0.388235 0 0 0 0 0.921569 0 0 0 1 0"/>
<feBlend mode="normal" in2="BackgroundImageFix" result="effect1_dropShadow_282_1075"/>
<feBlend mode="normal" in="SourceGraphic" in2="effect1_dropShadow_282_1075" result="shape"/>
</filter>
<filter id="filter1_d_282_1075" x="123.152" y="357.18" width="156.234" height="42.98" filterUnits="userSpaceOnUse" color-interpolation-filters="sRGB">
<feFlood flood-opacity="0" result="BackgroundImageFix"/>
<feColorMatrix in="SourceAlpha" type="matrix" values="0 0 0 0 0 0 0 0 0 0 0 0 0 0 0 0 0 0 127 0" result="hardAlpha"/>
<feOffset/>
<feGaussianBlur stdDeviation="7"/>
<feComposite in2="hardAlpha" operator="out"/>
<feColorMatrix type="matrix" values="0 0 0 0 0.835294 0 0 0 0 0 0 0 0 0 0.976471 0 0 0 1 0"/>
<feBlend mode="normal" in2="BackgroundImageFix" result="effect1_dropShadow_282_1075"/>
<feBlend mode="normal" in="SourceGraphic" in2="effect1_dropShadow_282_1075" result="shape"/>
</filter>
<filter id="filter2_f_282_1075" x="-149" y="450" width="700" height="700" filterUnits="userSpaceOnUse" color-interpolation-filters="sRGB">
<feFlood flood-opacity="0" result="BackgroundImageFix"/>
<feBlend mode="normal" in="SourceGraphic" in2="BackgroundImageFix" result="shape"/>
<feGaussianBlur stdDeviation="75" result="effect1_foregroundBlur_282_1075"/>
</filter>
<filter id="filter3_f_282_1075" x="-49" y="-200" width="500" height="500" filterUnits="userSpaceOnUse" color-interpolation-filters="sRGB">
<feFlood flood-opacity="0" result="BackgroundImageFix"/>
<feBlend mode="normal" in="SourceGraphic" in2="BackgroundImageFix" result="shape"/>
<feGaussianBlur stdDeviation="50" result="effect1_foregroundBlur_282_1075"/>
</filter>
<linearGradient id="paint0_linear_282_1075" x1="201" y1="290" x2="201" y2="584" gradientUnits="userSpaceOnUse">
<stop stop-color="#2563EB"/>
<stop offset="1" stop-color="#7C3AED"/>
</linearGradient>
<linearGradient id="paint1_linear_282_1075" x1="149.5" y1="419.333" x2="149.5" y2="436.667" gradientUnits="userSpaceOnUse">
<stop offset="0.2" stop-color="#2563EB"/>
<stop offset="0.8" stop-color="#7C3AED"/>
</linearGradient>
<linearGradient id="paint2_linear_282_1075" x1="155.5" y1="478.373" x2="155.5" y2="493.627" gradientUnits="userSpaceOnUse">
<stop offset="0.2" stop-color="#2563EB"/>
<stop offset="0.8" stop-color="#7C3AED"/>
</linearGradient>
<linearGradient id="paint3_linear_282_1075" x1="1" y1="600" x2="401" y2="600" gradientUnits="userSpaceOnUse">
<stop stop-color="#2563EB"/>
<stop offset="1" stop-color="#7C3AED"/>
</linearGradient>
<linearGradient id="paint4_linear_282_1075" x1="51" y1="-100" x2="351" y2="-100" gradientUnits="userSpaceOnUse">
<stop stop-color="#2563EB"/>
<stop offset="1" stop-color="#7C3AED"/>
</linearGradient>
<clipPath id="clip0_282_1075">
<rect width="402" height="874" fill="white"/>
</clipPath>
<clipPath id="clip1_282_1075">
<rect width="20" height="20" fill="white" transform="translate(139.5 418)"/>
</clipPath>
</defs>
</svg>
