<svg width="402" height="68" viewBox="0 0 402 68" fill="none" xmlns="http://www.w3.org/2000/svg">
<g filter="url(#filter0_d_284_26)">
<rect x="24" y="14" width="40" height="40" rx="20" fill="#1E293B" shape-rendering="crispEdges"/>
<rect x="24.75" y="14.75" width="38.5" height="38.5" rx="19.25" stroke="#2563EB" stroke-width="1.5" shape-rendering="crispEdges"/>
<path d="M52.4858 33.8642L44.4409 25.8251C44.383 25.767 44.3142 25.721 44.2384 25.6896C44.1627 25.6582 44.0815 25.642 43.9995 25.642C43.9175 25.642 43.8363 25.6582 43.7606 25.6896C43.6848 25.721 43.616 25.767 43.5581 25.8251L35.5132 33.8642C35.2788 34.0985 35.146 34.4169 35.146 34.7489C35.146 35.4384 35.7065 35.9989 36.396 35.9989H37.2437V41.7352C37.2437 42.0809 37.5229 42.3602 37.8687 42.3602H42.7495V37.9852H44.937V42.3602H50.1304C50.4761 42.3602 50.7554 42.0809 50.7554 41.7352V35.9989H51.603C51.9351 35.9989 52.2534 35.8681 52.4878 35.6317C52.9741 35.1434 52.9741 34.3524 52.4858 33.8642Z" fill="white"/>
</g>
<path d="M162.496 32L160.368 27.936H160.352V32H156.8V20.672H162.08C162.997 20.672 163.781 20.8373 164.432 21.168C165.083 21.488 165.568 21.9307 165.888 22.496C166.219 23.0507 166.384 23.68 166.384 24.384C166.384 25.1413 166.171 25.8133 165.744 26.4C165.328 26.9867 164.725 27.408 163.936 27.664L166.4 32H162.496ZM160.352 25.568H161.76C162.101 25.568 162.357 25.4933 162.528 25.344C162.699 25.184 162.784 24.9387 162.784 24.608C162.784 24.3093 162.693 24.0747 162.512 23.904C162.341 23.7333 162.091 23.648 161.76 23.648H160.352V25.568ZM176.783 24.56C176.783 25.2747 176.617 25.9253 176.287 26.512C175.956 27.088 175.465 27.5467 174.815 27.888C174.175 28.2293 173.396 28.4 172.479 28.4H171.071V32H167.519V20.672H172.479C173.865 20.672 174.927 21.024 175.663 21.728C176.409 22.432 176.783 23.376 176.783 24.56ZM172.079 25.6C172.815 25.6 173.183 25.2533 173.183 24.56C173.183 23.8667 172.815 23.52 172.079 23.52H171.071V25.6H172.079ZM182.341 32.112C180.987 32.112 179.867 31.7973 178.981 31.168C178.107 30.528 177.632 29.5947 177.557 28.368H181.333C181.387 29.0187 181.675 29.344 182.197 29.344C182.389 29.344 182.549 29.3013 182.677 29.216C182.816 29.12 182.885 28.976 182.885 28.784C182.885 28.5173 182.741 28.304 182.453 28.144C182.165 27.9733 181.717 27.7813 181.109 27.568C180.384 27.312 179.781 27.0613 179.301 26.816C178.832 26.5707 178.427 26.2133 178.085 25.744C177.744 25.2747 177.579 24.672 177.589 23.936C177.589 23.2 177.776 22.576 178.149 22.064C178.533 21.5413 179.051 21.1467 179.701 20.88C180.363 20.6133 181.104 20.48 181.925 20.48C183.312 20.48 184.411 20.8 185.221 21.44C186.043 22.08 186.475 22.9813 186.517 24.144H182.693C182.683 23.824 182.603 23.5947 182.453 23.456C182.304 23.3173 182.123 23.248 181.909 23.248C181.76 23.248 181.637 23.3013 181.541 23.408C181.445 23.504 181.397 23.6427 181.397 23.824C181.397 24.08 181.536 24.2933 181.813 24.464C182.101 24.624 182.555 24.8213 183.173 25.056C183.888 25.3227 184.475 25.5787 184.933 25.824C185.403 26.0693 185.808 26.4107 186.149 26.848C186.491 27.2853 186.661 27.8347 186.661 28.496C186.661 29.1893 186.491 29.8133 186.149 30.368C185.808 30.912 185.312 31.3387 184.661 31.648C184.011 31.9573 183.237 32.112 182.341 32.112Z" fill="white"/>
<path d="M197.892 30.288H194.116L193.556 32H189.828L193.972 20.672H198.068L202.196 32H198.452L197.892 30.288ZM197.028 27.616L196.004 24.464L194.98 27.616H197.028ZM208.699 32L206.571 27.936H206.555V32H203.003V20.672H208.283C209.2 20.672 209.984 20.8373 210.635 21.168C211.286 21.488 211.771 21.9307 212.091 22.496C212.422 23.0507 212.587 23.68 212.587 24.384C212.587 25.1413 212.374 25.8133 211.947 26.4C211.531 26.9867 210.928 27.408 210.139 27.664L212.603 32H208.699ZM206.555 25.568H207.963C208.304 25.568 208.56 25.4933 208.731 25.344C208.902 25.184 208.987 24.9387 208.987 24.608C208.987 24.3093 208.896 24.0747 208.715 23.904C208.544 23.7333 208.294 23.648 207.963 23.648H206.555V25.568ZM217.274 23.504V24.896H220.794V27.568H217.274V29.168H221.274V32H213.722V20.672H221.274V23.504H217.274ZM233.477 32H229.925L226.165 26.304V32H222.613V20.672H226.165L229.925 26.464V20.672H233.477V32ZM242.345 30.288H238.569L238.009 32H234.281L238.425 20.672H242.521L246.649 32H242.905L242.345 30.288ZM241.481 27.616L240.457 24.464L239.433 27.616H241.481Z" fill="#7C3AED"/>
<line x1="157.5" y1="46.25" x2="165.5" y2="46.25" stroke="#2563EB" stroke-width="1.5"/>
<path d="M171.381 49.001H173.451V50H170.121V43.718H171.381V49.001ZM175.512 44.735V46.31H177.627V47.309H175.512V48.974H177.897V50H174.252V43.709H177.897V44.735H175.512ZM182.894 48.803H180.392L179.978 50H178.655L180.914 43.709H182.381L184.64 50H183.308L182.894 48.803ZM182.552 47.795L181.643 45.167L180.734 47.795H182.552ZM187.68 43.718C188.34 43.718 188.919 43.847 189.417 44.105C189.921 44.363 190.308 44.732 190.578 45.212C190.854 45.686 190.992 46.238 190.992 46.868C190.992 47.498 190.854 48.05 190.578 48.524C190.308 48.992 189.921 49.355 189.417 49.613C188.919 49.871 188.34 50 187.68 50H185.484V43.718H187.68ZM187.635 48.929C188.295 48.929 188.805 48.749 189.165 48.389C189.525 48.029 189.705 47.522 189.705 46.868C189.705 46.214 189.525 45.704 189.165 45.338C188.805 44.966 188.295 44.78 187.635 44.78H186.744V48.929H187.635ZM193.195 44.735V46.31H195.31V47.309H193.195V48.974H195.58V50H191.935V43.709H195.58V44.735H193.195ZM199.965 50L198.579 47.552H197.985V50H196.725V43.718H199.083C199.569 43.718 199.983 43.805 200.325 43.979C200.667 44.147 200.922 44.378 201.09 44.672C201.264 44.96 201.351 45.284 201.351 45.644C201.351 46.058 201.231 46.433 200.991 46.769C200.751 47.099 200.394 47.327 199.92 47.453L201.423 50H199.965ZM197.985 46.607H199.038C199.38 46.607 199.635 46.526 199.803 46.364C199.971 46.196 200.055 45.965 200.055 45.671C200.055 45.383 199.971 45.161 199.803 45.005C199.635 44.843 199.38 44.762 199.038 44.762H197.985V46.607ZM206.055 46.778C206.409 46.844 206.7 47.021 206.928 47.309C207.156 47.597 207.27 47.927 207.27 48.299C207.27 48.635 207.186 48.932 207.018 49.19C206.856 49.442 206.619 49.64 206.307 49.784C205.995 49.928 205.626 50 205.2 50H202.491V43.718H205.083C205.509 43.718 205.875 43.787 206.181 43.925C206.493 44.063 206.727 44.255 206.883 44.501C207.045 44.747 207.126 45.026 207.126 45.338C207.126 45.704 207.027 46.01 206.829 46.256C206.637 46.502 206.379 46.676 206.055 46.778ZM203.751 46.31H204.903C205.203 46.31 205.434 46.244 205.596 46.112C205.758 45.974 205.839 45.779 205.839 45.527C205.839 45.275 205.758 45.08 205.596 44.942C205.434 44.804 205.203 44.735 204.903 44.735H203.751V46.31ZM205.02 48.974C205.326 48.974 205.563 48.902 205.731 48.758C205.905 48.614 205.992 48.41 205.992 48.146C205.992 47.876 205.902 47.666 205.722 47.516C205.542 47.36 205.299 47.282 204.993 47.282H203.751V48.974H205.02ZM211.19 50.063C210.602 50.063 210.062 49.925 209.57 49.649C209.078 49.373 208.688 48.992 208.4 48.506C208.112 48.014 207.968 47.459 207.968 46.841C207.968 46.229 208.112 45.68 208.4 45.194C208.688 44.702 209.078 44.318 209.57 44.042C210.062 43.766 210.602 43.628 211.19 43.628C211.784 43.628 212.324 43.766 212.81 44.042C213.302 44.318 213.689 44.702 213.971 45.194C214.259 45.68 214.403 46.229 214.403 46.841C214.403 47.459 214.259 48.014 213.971 48.506C213.689 48.992 213.302 49.373 212.81 49.649C212.318 49.925 211.778 50.063 211.19 50.063ZM211.19 48.938C211.568 48.938 211.901 48.854 212.189 48.686C212.477 48.512 212.702 48.266 212.864 47.948C213.026 47.63 213.107 47.261 213.107 46.841C213.107 46.421 213.026 46.055 212.864 45.743C212.702 45.425 212.477 45.182 212.189 45.014C211.901 44.846 211.568 44.762 211.19 44.762C210.812 44.762 210.476 44.846 210.182 45.014C209.894 45.182 209.669 45.425 209.507 45.743C209.345 46.055 209.264 46.421 209.264 46.841C209.264 47.261 209.345 47.63 209.507 47.948C209.669 48.266 209.894 48.512 210.182 48.686C210.476 48.854 210.812 48.938 211.19 48.938ZM219.193 48.803H216.691L216.277 50H214.954L217.213 43.709H218.68L220.939 50H219.607L219.193 48.803ZM218.851 47.795L217.942 45.167L217.033 47.795H218.851ZM225.023 50L223.637 47.552H223.043V50H221.783V43.718H224.141C224.627 43.718 225.041 43.805 225.383 43.979C225.725 44.147 225.98 44.378 226.148 44.672C226.322 44.96 226.409 45.284 226.409 45.644C226.409 46.058 226.289 46.433 226.049 46.769C225.809 47.099 225.452 47.327 224.978 47.453L226.481 50H225.023ZM223.043 46.607H224.096C224.438 46.607 224.693 46.526 224.861 46.364C225.029 46.196 225.113 45.965 225.113 45.671C225.113 45.383 225.029 45.161 224.861 45.005C224.693 44.843 224.438 44.762 224.096 44.762H223.043V46.607ZM229.745 43.718C230.405 43.718 230.984 43.847 231.482 44.105C231.986 44.363 232.373 44.732 232.643 45.212C232.919 45.686 233.057 46.238 233.057 46.868C233.057 47.498 232.919 48.05 232.643 48.524C232.373 48.992 231.986 49.355 231.482 49.613C230.984 49.871 230.405 50 229.745 50H227.549V43.718H229.745ZM229.7 48.929C230.36 48.929 230.87 48.749 231.23 48.389C231.59 48.029 231.77 47.522 231.77 46.868C231.77 46.214 231.59 45.704 231.23 45.338C230.87 44.966 230.36 44.78 229.7 44.78H228.809V48.929H229.7Z" fill="#2563EB"/>
<line x1="237.5" y1="46.25" x2="245.5" y2="46.25" stroke="#7C3AED" stroke-width="1.5"/>
<defs>
<filter id="filter0_d_284_26" x="10" y="0" width="68" height="68" filterUnits="userSpaceOnUse" color-interpolation-filters="sRGB">
<feFlood flood-opacity="0" result="BackgroundImageFix"/>
<feColorMatrix in="SourceAlpha" type="matrix" values="0 0 0 0 0 0 0 0 0 0 0 0 0 0 0 0 0 0 127 0" result="hardAlpha"/>
<feOffset/>
<feGaussianBlur stdDeviation="7"/>
<feComposite in2="hardAlpha" operator="out"/>
<feColorMatrix type="matrix" values="0 0 0 0 0.486275 0 0 0 0 0.227451 0 0 0 0 0.929412 0 0 0 0.8 0"/>
<feBlend mode="normal" in2="BackgroundImageFix" result="effect1_dropShadow_284_26"/>
<feBlend mode="normal" in="SourceGraphic" in2="effect1_dropShadow_284_26" result="shape"/>
</filter>
</defs>
</svg>
