<svg width="358" height="144" viewBox="0 0 358 144" fill="none" xmlns="http://www.w3.org/2000/svg">
<g clip-path="url(#clip0_285_1335)">
<g filter="url(#filter0_d_285_1335)">
<mask id="path-1-outside-1_285_1335" maskUnits="userSpaceOnUse" x="13" y="39" width="332" height="66" fill="black">
<rect fill="white" x="13" y="39" width="332" height="66"/>
<path d="M52.6367 89.9689L44.8775 94.2872L29.7389 86.4156L36.6638 98.8584L28.9045 103.177L15.1325 78.4309L22.8918 74.1126L38.1471 82.1939L31.1055 69.5414L38.8647 65.2231L52.6367 89.9689ZM69.6945 79.5039L60.7602 82.5521L60.8172 87.0548L51.9964 90.0643L52.6569 59.9161L62.3484 56.6095L81.2601 80.0802L72.4015 83.1025L69.6945 79.5039ZM65.4932 73.8792L60.5259 67.2479L60.6475 75.5324L65.4932 73.8792ZM98.4835 71.9991L89.2642 74.0284L88.817 78.5093L79.7149 80.5128L83.7447 50.6278L93.7453 48.4265L109.912 73.866L100.771 75.8781L98.4835 71.9991ZM94.938 65.9396L90.7439 58.7941L89.9377 67.0402L94.938 65.9396ZM127.583 56.8453C129.328 57.0108 130.748 57.6513 131.842 58.7668C132.959 59.8524 133.628 61.201 133.848 62.8127C134.183 65.2699 133.624 67.2841 132.17 68.8552C130.739 70.3964 128.504 71.3744 125.465 71.7892L110.762 73.7967L106.931 45.7371L121.238 43.7837C124.091 43.3941 126.422 43.7083 128.23 44.7265C130.037 45.7446 131.103 47.4427 131.428 49.8206C131.652 51.4588 131.405 52.9054 130.688 54.1606C129.994 55.3857 128.959 56.2806 127.583 56.8453ZM117.222 55.4743L120.631 55.009C121.423 54.9007 121.983 54.6628 122.31 54.2953C122.663 53.9241 122.794 53.4083 122.704 52.7477C122.61 52.0608 122.343 51.5858 121.904 51.3229C121.487 51.0299 120.882 50.9375 120.09 51.0457L116.681 51.5111L117.222 55.4743ZM122.6 64.9944C123.392 64.8862 123.954 64.6615 124.284 64.3204C124.637 63.9492 124.767 63.4201 124.673 62.7332C124.489 61.3857 123.617 60.8183 122.059 61.0312L118.056 61.5777L118.597 65.5409L122.6 64.9944ZM154.701 64.8952L145.281 65.5058L144.16 69.8674L134.86 70.4703L143.366 41.5394L153.585 40.877L165.715 68.4702L156.375 69.0756L154.701 64.8952ZM152.113 58.3689L149.049 50.671L147.004 58.7001L152.113 58.3689ZM183.898 68.5331L175.68 56.2386L175.658 68.5186L166.778 68.5028L166.828 40.1829L175.708 40.1986L175.687 52.1186L183.828 40.213L193.868 40.2307L184.084 53.7734L194.458 68.5518L183.898 68.5331ZM229.455 56.7399C231.115 57.3034 232.349 58.2541 233.156 59.5919C233.993 60.9058 234.332 62.3723 234.175 63.9913C233.935 66.4596 232.926 68.2905 231.148 69.4839C229.4 70.6534 227 71.0895 223.948 70.7924L209.178 69.3545L211.922 41.1677L226.294 42.5669C229.16 42.8459 231.355 43.6893 232.879 45.0969C234.404 46.5045 235.049 48.4027 234.817 50.7914C234.657 52.437 234.083 53.7877 233.096 54.8437C232.138 55.8758 230.925 56.5078 229.455 56.7399ZM219.69 53.0162L223.114 53.3495C223.91 53.427 224.51 53.3246 224.912 53.0423C225.341 52.7626 225.588 52.2909 225.653 51.6274C225.72 50.9373 225.57 50.4137 225.203 50.0564C224.865 49.6752 224.298 49.4458 223.501 49.3683L220.078 49.035L219.69 53.0162ZM222.727 63.5198C223.523 63.5974 224.121 63.5082 224.521 63.2524C224.95 62.9727 225.198 62.4878 225.265 61.7977C225.397 60.4441 224.68 59.6911 223.114 59.5387L219.093 59.1472L218.706 63.1284L222.727 63.5198ZM248.856 74.6469C246.228 74.1904 243.919 73.153 241.926 71.5347C239.96 69.9209 238.523 67.9119 237.614 65.5075C236.706 63.1032 236.489 60.5348 236.964 57.8024C237.439 55.07 238.509 52.7253 240.175 50.7684C241.842 48.8114 243.87 47.4181 246.261 46.5885C248.682 45.7371 251.207 45.5397 253.834 45.9962C256.461 46.4528 258.758 47.4879 260.724 49.1016C262.695 50.6891 264.121 52.6827 265.003 55.0825C265.912 57.4869 266.129 60.0553 265.654 62.7877C265.179 65.52 264.109 67.8647 262.442 69.8217C260.802 71.7832 258.772 73.1896 256.35 74.041C253.955 74.8969 251.457 75.0989 248.856 74.6469ZM250.273 66.4892C252.007 66.7905 253.443 66.4716 254.581 65.5324C255.723 64.5671 256.458 63.1385 256.787 61.2469C257.12 59.329 256.91 57.7361 256.156 56.4683C255.406 55.1742 254.164 54.3765 252.43 54.0752C250.67 53.7693 249.219 54.0991 248.077 55.0645C246.939 56.0036 246.204 57.4321 245.87 59.35C245.542 61.2417 245.752 62.8345 246.502 64.1286C247.256 65.3964 248.513 66.1833 250.273 66.4892ZM287.134 68.2013C288.679 69.0306 289.739 70.1716 290.315 71.6242C290.923 73.0581 291.017 74.5604 290.594 76.1313C289.951 78.5263 288.654 80.1659 286.704 81.0501C284.787 81.9155 282.348 81.9501 279.386 81.1541L265.055 77.3018L272.406 49.9526L286.351 53.701C289.133 54.4486 291.159 55.6422 292.43 57.2818C293.702 58.9213 294.026 60.9 293.403 63.2177C292.974 64.8143 292.185 66.0521 291.038 66.9311C289.923 67.7912 288.622 68.2146 287.134 68.2013ZM278.116 62.9193L281.438 63.8123C282.211 64.0199 282.819 64.0177 283.263 63.8056C283.732 63.6004 284.053 63.1759 284.226 62.5321C284.406 61.8625 284.345 61.3213 284.041 60.9084C283.771 60.4767 283.249 60.1571 282.477 59.9494L279.155 59.0564L278.116 62.9193ZM279.38 73.7797C280.153 73.9874 280.758 73.9981 281.194 73.8117C281.664 73.6065 281.988 73.1691 282.168 72.4995C282.521 71.1862 281.938 70.3253 280.419 69.9169L276.517 68.8681L275.479 72.731L279.38 73.7797ZM302.311 89.5599C299.844 88.5466 297.813 87.0347 296.217 85.0242C294.646 83.0238 293.677 80.7517 293.309 78.2079C292.942 75.664 293.285 73.1094 294.339 70.5442C295.392 67.9789 296.944 65.9208 298.994 64.37C301.044 62.8193 303.325 61.8971 305.839 61.6035C308.387 61.2954 310.894 61.648 313.361 62.6613C315.828 63.6747 317.846 65.1815 319.417 67.1819C320.999 69.1576 321.961 71.4123 322.304 73.946C322.671 76.4899 322.328 79.0444 321.274 81.6097C320.22 84.175 318.668 86.2331 316.619 87.7838C314.594 89.3447 312.307 90.2792 309.759 90.5874C307.235 90.9056 304.753 90.5631 302.311 89.5599ZM305.457 81.9011C307.085 82.5699 308.556 82.5687 309.869 81.8975C311.193 81.2016 312.22 79.9657 312.949 78.1897C313.689 76.3891 313.828 74.7884 313.365 73.3876C312.913 71.9621 311.873 70.915 310.245 70.2462C308.592 69.5673 307.104 69.5757 305.78 70.2716C304.467 70.9428 303.44 72.1787 302.7 73.9793C301.971 75.7553 301.832 77.356 302.284 78.7815C302.747 80.1823 303.804 81.2221 305.457 81.9011ZM342.626 75.9281L331.715 91.4688L325.265 87.449L334.41 70.8081L342.626 75.9281ZM322.375 99.2695C321.063 98.4515 320.229 97.4448 319.874 96.2496C319.519 95.0544 319.673 93.9249 320.336 92.8612C321.013 91.7749 321.966 91.1278 323.196 90.9199C324.439 90.6894 325.717 90.9832 327.03 91.8012C328.32 92.6052 329.135 93.6161 329.476 94.834C329.831 96.0292 329.67 97.17 328.993 98.2563C328.33 99.3199 327.384 99.9557 326.154 100.164C324.925 100.372 323.665 100.073 322.375 99.2695Z"/>
</mask>
<path d="M52.6367 89.9689L44.8775 94.2872L29.7389 86.4156L36.6638 98.8584L28.9045 103.177L15.1325 78.4309L22.8918 74.1126L38.1471 82.1939L31.1055 69.5414L38.8647 65.2231L52.6367 89.9689ZM69.6945 79.5039L60.7602 82.5521L60.8172 87.0548L51.9964 90.0643L52.6569 59.9161L62.3484 56.6095L81.2601 80.0802L72.4015 83.1025L69.6945 79.5039ZM65.4932 73.8792L60.5259 67.2479L60.6475 75.5324L65.4932 73.8792ZM98.4835 71.9991L89.2642 74.0284L88.817 78.5093L79.7149 80.5128L83.7447 50.6278L93.7453 48.4265L109.912 73.866L100.771 75.8781L98.4835 71.9991ZM94.938 65.9396L90.7439 58.7941L89.9377 67.0402L94.938 65.9396ZM127.583 56.8453C129.328 57.0108 130.748 57.6513 131.842 58.7668C132.959 59.8524 133.628 61.201 133.848 62.8127C134.183 65.2699 133.624 67.2841 132.17 68.8552C130.739 70.3964 128.504 71.3744 125.465 71.7892L110.762 73.7967L106.931 45.7371L121.238 43.7837C124.091 43.3941 126.422 43.7083 128.23 44.7265C130.037 45.7446 131.103 47.4427 131.428 49.8206C131.652 51.4588 131.405 52.9054 130.688 54.1606C129.994 55.3857 128.959 56.2806 127.583 56.8453ZM117.222 55.4743L120.631 55.009C121.423 54.9007 121.983 54.6628 122.31 54.2953C122.663 53.9241 122.794 53.4083 122.704 52.7477C122.61 52.0608 122.343 51.5858 121.904 51.3229C121.487 51.0299 120.882 50.9375 120.09 51.0457L116.681 51.5111L117.222 55.4743ZM122.6 64.9944C123.392 64.8862 123.954 64.6615 124.284 64.3204C124.637 63.9492 124.767 63.4201 124.673 62.7332C124.489 61.3857 123.617 60.8183 122.059 61.0312L118.056 61.5777L118.597 65.5409L122.6 64.9944ZM154.701 64.8952L145.281 65.5058L144.16 69.8674L134.86 70.4703L143.366 41.5394L153.585 40.877L165.715 68.4702L156.375 69.0756L154.701 64.8952ZM152.113 58.3689L149.049 50.671L147.004 58.7001L152.113 58.3689ZM183.898 68.5331L175.68 56.2386L175.658 68.5186L166.778 68.5028L166.828 40.1829L175.708 40.1986L175.687 52.1186L183.828 40.213L193.868 40.2307L184.084 53.7734L194.458 68.5518L183.898 68.5331ZM229.455 56.7399C231.115 57.3034 232.349 58.2541 233.156 59.5919C233.993 60.9058 234.332 62.3723 234.175 63.9913C233.935 66.4596 232.926 68.2905 231.148 69.4839C229.4 70.6534 227 71.0895 223.948 70.7924L209.178 69.3545L211.922 41.1677L226.294 42.5669C229.16 42.8459 231.355 43.6893 232.879 45.0969C234.404 46.5045 235.049 48.4027 234.817 50.7914C234.657 52.437 234.083 53.7877 233.096 54.8437C232.138 55.8758 230.925 56.5078 229.455 56.7399ZM219.69 53.0162L223.114 53.3495C223.91 53.427 224.51 53.3246 224.912 53.0423C225.341 52.7626 225.588 52.2909 225.653 51.6274C225.72 50.9373 225.57 50.4137 225.203 50.0564C224.865 49.6752 224.298 49.4458 223.501 49.3683L220.078 49.035L219.69 53.0162ZM222.727 63.5198C223.523 63.5974 224.121 63.5082 224.521 63.2524C224.95 62.9727 225.198 62.4878 225.265 61.7977C225.397 60.4441 224.68 59.6911 223.114 59.5387L219.093 59.1472L218.706 63.1284L222.727 63.5198ZM248.856 74.6469C246.228 74.1904 243.919 73.153 241.926 71.5347C239.96 69.9209 238.523 67.9119 237.614 65.5075C236.706 63.1032 236.489 60.5348 236.964 57.8024C237.439 55.07 238.509 52.7253 240.175 50.7684C241.842 48.8114 243.87 47.4181 246.261 46.5885C248.682 45.7371 251.207 45.5397 253.834 45.9962C256.461 46.4528 258.758 47.4879 260.724 49.1016C262.695 50.6891 264.121 52.6827 265.003 55.0825C265.912 57.4869 266.129 60.0553 265.654 62.7877C265.179 65.52 264.109 67.8647 262.442 69.8217C260.802 71.7832 258.772 73.1896 256.35 74.041C253.955 74.8969 251.457 75.0989 248.856 74.6469ZM250.273 66.4892C252.007 66.7905 253.443 66.4716 254.581 65.5324C255.723 64.5671 256.458 63.1385 256.787 61.2469C257.12 59.329 256.91 57.7361 256.156 56.4683C255.406 55.1742 254.164 54.3765 252.43 54.0752C250.67 53.7693 249.219 54.0991 248.077 55.0645C246.939 56.0036 246.204 57.4321 245.87 59.35C245.542 61.2417 245.752 62.8345 246.502 64.1286C247.256 65.3964 248.513 66.1833 250.273 66.4892ZM287.134 68.2013C288.679 69.0306 289.739 70.1716 290.315 71.6242C290.923 73.0581 291.017 74.5604 290.594 76.1313C289.951 78.5263 288.654 80.1659 286.704 81.0501C284.787 81.9155 282.348 81.9501 279.386 81.1541L265.055 77.3018L272.406 49.9526L286.351 53.701C289.133 54.4486 291.159 55.6422 292.43 57.2818C293.702 58.9213 294.026 60.9 293.403 63.2177C292.974 64.8143 292.185 66.0521 291.038 66.9311C289.923 67.7912 288.622 68.2146 287.134 68.2013ZM278.116 62.9193L281.438 63.8123C282.211 64.0199 282.819 64.0177 283.263 63.8056C283.732 63.6004 284.053 63.1759 284.226 62.5321C284.406 61.8625 284.345 61.3213 284.041 60.9084C283.771 60.4767 283.249 60.1571 282.477 59.9494L279.155 59.0564L278.116 62.9193ZM279.38 73.7797C280.153 73.9874 280.758 73.9981 281.194 73.8117C281.664 73.6065 281.988 73.1691 282.168 72.4995C282.521 71.1862 281.938 70.3253 280.419 69.9169L276.517 68.8681L275.479 72.731L279.38 73.7797ZM302.311 89.5599C299.844 88.5466 297.813 87.0347 296.217 85.0242C294.646 83.0238 293.677 80.7517 293.309 78.2079C292.942 75.664 293.285 73.1094 294.339 70.5442C295.392 67.9789 296.944 65.9208 298.994 64.37C301.044 62.8193 303.325 61.8971 305.839 61.6035C308.387 61.2954 310.894 61.648 313.361 62.6613C315.828 63.6747 317.846 65.1815 319.417 67.1819C320.999 69.1576 321.961 71.4123 322.304 73.946C322.671 76.4899 322.328 79.0444 321.274 81.6097C320.22 84.175 318.668 86.2331 316.619 87.7838C314.594 89.3447 312.307 90.2792 309.759 90.5874C307.235 90.9056 304.753 90.5631 302.311 89.5599ZM305.457 81.9011C307.085 82.5699 308.556 82.5687 309.869 81.8975C311.193 81.2016 312.22 79.9657 312.949 78.1897C313.689 76.3891 313.828 74.7884 313.365 73.3876C312.913 71.9621 311.873 70.915 310.245 70.2462C308.592 69.5673 307.104 69.5757 305.78 70.2716C304.467 70.9428 303.44 72.1787 302.7 73.9793C301.971 75.7553 301.832 77.356 302.284 78.7815C302.747 80.1823 303.804 81.2221 305.457 81.9011ZM342.626 75.9281L331.715 91.4688L325.265 87.449L334.41 70.8081L342.626 75.9281ZM322.375 99.2695C321.063 98.4515 320.229 97.4448 319.874 96.2496C319.519 95.0544 319.673 93.9249 320.336 92.8612C321.013 91.7749 321.966 91.1278 323.196 90.9199C324.439 90.6894 325.717 90.9832 327.03 91.8012C328.32 92.6052 329.135 93.6161 329.476 94.834C329.831 96.0292 329.67 97.17 328.993 98.2563C328.33 99.3199 327.384 99.9557 326.154 100.164C324.925 100.372 323.665 100.073 322.375 99.2695Z" fill="#EF4444" fill-opacity="0.8" shape-rendering="crispEdges"/>
<path d="M52.6367 89.9689L53.123 90.8426L53.9968 90.3563L53.5105 89.4826L52.6367 89.9689ZM44.8775 94.2872L44.4161 95.1744L44.8936 95.4227L45.3638 95.161L44.8775 94.2872ZM29.7389 86.4156L30.2002 85.5284L27.2457 83.9921L28.8651 86.9019L29.7389 86.4156ZM36.6638 98.8584L37.1501 99.7322L38.0239 99.2459L37.5376 98.3721L36.6638 98.8584ZM28.9045 103.177L28.0307 103.663L28.517 104.537L29.3908 104.051L28.9045 103.177ZM15.1325 78.4309L14.6462 77.5571L13.7725 78.0434L14.2588 78.9172L15.1325 78.4309ZM22.8918 74.1126L23.3599 73.2289L22.88 72.9747L22.4055 73.2388L22.8918 74.1126ZM38.1471 82.1939L37.679 83.0776L40.6631 84.6584L39.0209 81.7076L38.1471 82.1939ZM31.1055 69.5414L30.6192 68.6676L29.7454 69.1539L30.2317 70.0277L31.1055 69.5414ZM38.8647 65.2231L39.7385 64.7368L39.2522 63.863L38.3784 64.3493L38.8647 65.2231ZM52.6367 89.9689L52.1504 89.0951L44.3912 93.4134L44.8775 94.2872L45.3638 95.161L53.123 90.8426L52.6367 89.9689ZM44.8775 94.2872L45.3388 93.4L30.2002 85.5284L29.7389 86.4156L29.2776 87.3028L44.4161 95.1744L44.8775 94.2872ZM29.7389 86.4156L28.8651 86.9019L35.79 99.3447L36.6638 98.8584L37.5376 98.3721L30.6127 85.9293L29.7389 86.4156ZM36.6638 98.8584L36.1775 97.9846L28.4182 102.303L28.9045 103.177L29.3908 104.051L37.1501 99.7322L36.6638 98.8584ZM28.9045 103.177L29.7783 102.69L16.0063 77.9446L15.1325 78.4309L14.2588 78.9172L28.0307 103.663L28.9045 103.177ZM15.1325 78.4309L15.6188 79.3047L23.3781 74.9864L22.8918 74.1126L22.4055 73.2388L14.6462 77.5571L15.1325 78.4309ZM22.8918 74.1126L22.4237 74.9963L37.679 83.0776L38.1471 82.1939L38.6152 81.3102L23.3599 73.2289L22.8918 74.1126ZM38.1471 82.1939L39.0209 81.7076L31.9793 69.0551L31.1055 69.5414L30.2317 70.0277L37.2733 82.6802L38.1471 82.1939ZM31.1055 69.5414L31.5918 70.4152L39.351 66.0968L38.8647 65.2231L38.3784 64.3493L30.6192 68.6676L31.1055 69.5414ZM38.8647 65.2231L37.991 65.7094L51.7629 90.4552L52.6367 89.9689L53.5105 89.4826L39.7385 64.7368L38.8647 65.2231ZM69.6945 79.5039L70.4937 78.9027L70.0578 78.3233L69.3716 78.5574L69.6945 79.5039ZM60.7602 82.5521L60.4373 81.6056L59.7511 81.8397L59.7603 82.5647L60.7602 82.5521ZM60.8172 87.0548L61.1401 88.0013L61.8263 87.7672L61.8171 87.0422L60.8172 87.0548ZM51.9964 90.0643L50.9967 90.0424L50.9654 91.4727L52.3193 91.0107L51.9964 90.0643ZM52.6569 59.9161L52.334 58.9696L51.6725 59.1953L51.6572 59.8942L52.6569 59.9161ZM62.3484 56.6096L63.1271 55.9821L62.6879 55.4371L62.0255 55.6631L62.3484 56.6096ZM81.2601 80.0802L81.5831 81.0266L82.9352 80.5653L82.0388 79.4528L81.2601 80.0802ZM72.4015 83.1025L71.6024 83.7037L72.0382 84.2831L72.7244 84.049L72.4015 83.1025ZM65.4932 73.8792L65.8161 74.8256L67.1187 74.3812L66.2936 73.2796L65.4932 73.8792ZM60.5259 67.2479L61.3263 66.6484L59.4809 64.1848L59.526 67.2626L60.5259 67.2479ZM60.6475 75.5324L59.6476 75.5471L59.6678 76.9233L60.9704 76.4789L60.6475 75.5324ZM69.6945 79.5039L69.3716 78.5574L60.4373 81.6056L60.7602 82.5521L61.0831 83.4985L70.0174 80.4503L69.6945 79.5039ZM60.7602 82.5521L59.7603 82.5647L59.8173 87.0675L60.8172 87.0548L61.8171 87.0422L61.7601 82.5394L60.7602 82.5521ZM60.8172 87.0548L60.4943 86.1084L51.6735 89.1179L51.9964 90.0643L52.3193 91.0107L61.1401 88.0013L60.8172 87.0548ZM51.9964 90.0643L52.9962 90.0862L53.6567 59.938L52.6569 59.9161L51.6572 59.8942L50.9967 90.0424L51.9964 90.0643ZM52.6569 59.9161L52.9798 60.8625L62.6713 57.556L62.3484 56.6096L62.0255 55.6631L52.334 58.9696L52.6569 59.9161ZM62.3484 56.6096L61.5697 57.237L80.4815 80.7076L81.2601 80.0802L82.0388 79.4528L63.1271 55.9821L62.3484 56.6096ZM81.2601 80.0802L80.9372 79.1338L72.0786 82.1561L72.4015 83.1025L72.7244 84.049L81.5831 81.0266L81.2601 80.0802ZM72.4015 83.1025L73.2007 82.5014L70.4937 78.9027L69.6945 79.5039L68.8954 80.105L71.6024 83.7037L72.4015 83.1025ZM65.4932 73.8792L66.2936 73.2796L61.3263 66.6484L60.5259 67.2479L59.7256 67.8474L64.6929 74.4787L65.4932 73.8792ZM60.5259 67.2479L59.526 67.2626L59.6476 75.5471L60.6475 75.5324L61.6474 75.5177L61.5258 67.2332L60.5259 67.2479ZM60.6475 75.5324L60.9704 76.4789L65.8161 74.8256L65.4932 73.8792L65.1703 72.9327L60.3246 74.586L60.6475 75.5324ZM98.4835 71.9991L99.3449 71.4911L98.9766 70.8666L98.2685 71.0225L98.4835 71.9991ZM89.2642 74.0284L89.0492 73.0518L88.3411 73.2076L88.2691 73.9291L89.2642 74.0284ZM88.817 78.5093L89.0319 79.4859L89.74 79.33L89.812 78.6086L88.817 78.5093ZM79.7149 80.5128L78.7238 80.3791L78.5326 81.7969L79.9298 81.4894L79.7149 80.5128ZM83.7447 50.6278L83.5298 49.6512L82.8471 49.8014L82.7537 50.4942L83.7447 50.6278ZM93.7453 48.4265L94.5893 47.8902L94.2139 47.2994L93.5304 47.4499L93.7453 48.4265ZM109.912 73.866L110.127 74.8426L111.522 74.5354L110.756 73.3296L109.912 73.866ZM100.771 75.8781L99.9094 76.386L100.278 77.0105L100.986 76.8547L100.771 75.8781ZM94.938 65.9396L95.1529 66.9162L96.4971 66.6203L95.8004 65.4334L94.938 65.9396ZM90.7439 58.7941L91.6063 58.2879L90.0481 55.6333L89.7486 58.6968L90.7439 58.7941ZM89.9377 67.0402L88.9424 66.9429L88.8085 68.3127L90.1526 68.0168L89.9377 67.0402ZM98.4835 71.9991L98.2685 71.0225L89.0492 73.0518L89.2642 74.0284L89.4791 75.005L98.6984 72.9757L98.4835 71.9991ZM89.2642 74.0284L88.2691 73.9291L87.8219 78.41L88.817 78.5093L89.812 78.6086L90.2592 74.1277L89.2642 74.0284ZM88.817 78.5093L88.602 77.5327L79.4999 79.5362L79.7149 80.5128L79.9298 81.4894L89.0319 79.4859L88.817 78.5093ZM79.7149 80.5128L80.7059 80.6464L84.7358 50.7614L83.7447 50.6278L82.7537 50.4942L78.7238 80.3791L79.7149 80.5128ZM83.7447 50.6278L83.9597 51.6044L93.9603 49.4031L93.7453 48.4265L93.5304 47.4499L83.5298 49.6512L83.7447 50.6278ZM93.7453 48.4265L92.9014 48.9629L109.068 74.4023L109.912 73.866L110.756 73.3296L94.5893 47.8902L93.7453 48.4265ZM109.912 73.866L109.697 72.8893L100.556 74.9014L100.771 75.8781L100.986 76.8547L110.127 74.8426L109.912 73.866ZM100.771 75.8781L101.632 75.3701L99.3449 71.4911L98.4835 71.9991L97.6221 72.507L99.9094 76.386L100.771 75.8781ZM94.938 65.9396L95.8004 65.4334L91.6063 58.2879L90.7439 58.7941L89.8815 59.3003L94.0756 66.4458L94.938 65.9396ZM90.7439 58.7941L89.7486 58.6968L88.9424 66.9429L89.9377 67.0402L90.9329 67.1375L91.7391 58.8914L90.7439 58.7941ZM89.9377 67.0402L90.1526 68.0168L95.1529 66.9162L94.938 65.9396L94.723 64.963L89.7227 66.0636L89.9377 67.0402ZM127.583 56.8453L127.203 55.9202L127.489 57.8409L127.583 56.8453ZM131.842 58.7668L131.128 59.4671L131.137 59.4757L131.145 59.484L131.842 58.7668ZM133.848 62.8127L134.839 62.6774L133.848 62.8127ZM132.17 68.8552L132.903 69.5358L132.904 69.5345L132.17 68.8552ZM110.762 73.7967L109.771 73.932L109.906 74.9228L110.897 74.7875L110.762 73.7967ZM106.931 45.7371L106.795 44.7463L105.804 44.8815L105.94 45.8723L106.931 45.7371ZM130.688 54.1606L129.82 53.6647L129.818 53.6677L130.688 54.1606ZM117.222 55.4743L116.232 55.6096L116.367 56.6004L117.358 56.4651L117.222 55.4743ZM120.631 55.009L120.495 54.0181L120.631 55.009ZM122.31 54.2953L121.585 53.6061L121.573 53.6184L121.562 53.631L122.31 54.2953ZM121.904 51.3229L121.329 52.141L121.359 52.1621L121.39 52.1811L121.904 51.3229ZM120.09 51.0457L119.954 50.0549L120.09 51.0457ZM116.681 51.5111L116.546 50.5203L115.555 50.6556L115.69 51.6464L116.681 51.5111ZM124.284 64.3204L125.003 65.0159L125.009 65.0095L124.284 64.3204ZM124.673 62.7332L123.682 62.8684L124.673 62.7332ZM118.056 61.5777L117.92 60.5869L116.93 60.7222L117.065 61.713L118.056 61.5777ZM118.597 65.5409L117.606 65.6762L117.741 66.667L118.732 66.5317L118.597 65.5409ZM127.583 56.8453L127.489 57.8409C129.029 57.9869 130.219 58.5406 131.128 59.4671L131.842 58.7668L132.556 58.0666C131.276 56.762 129.627 56.0346 127.677 55.8498L127.583 56.8453ZM131.842 58.7668L131.145 59.484C132.095 60.4066 132.666 61.5471 132.857 62.948L133.848 62.8127L134.839 62.6774C134.59 60.8549 133.824 59.2981 132.539 58.0497L131.842 58.7668ZM133.848 62.8127L132.857 62.948C133.159 65.1614 132.654 66.8604 131.436 68.176L132.17 68.8552L132.904 69.5345C134.595 67.7078 135.208 65.3784 134.839 62.6774L133.848 62.8127ZM132.17 68.8552L131.437 68.1747C130.221 69.4839 128.241 70.4009 125.33 70.7984L125.465 71.7892L125.6 72.78C128.766 72.3478 131.256 71.3088 132.903 69.5358L132.17 68.8552ZM125.465 71.7892L125.33 70.7984L110.626 72.8059L110.762 73.7967L110.897 74.7875L125.6 72.78L125.465 71.7892ZM110.762 73.7967L111.752 73.6615L107.921 45.6018L106.931 45.7371L105.94 45.8723L109.771 73.932L110.762 73.7967ZM106.931 45.7371L107.066 46.7279L121.373 44.7745L121.238 43.7837L121.103 42.7928L106.795 44.7463L106.931 45.7371ZM121.238 43.7837L121.373 44.7745C124.093 44.4031 126.183 44.7213 127.739 45.5978L128.23 44.7265L128.72 43.8552C126.661 42.6954 124.09 42.385 121.103 42.7928L121.238 43.7837ZM128.23 44.7265L127.739 45.5978C129.229 46.4369 130.147 47.8329 130.437 49.9559L131.428 49.8206L132.419 49.6853C132.059 47.0525 130.846 45.0523 128.72 43.8552L128.23 44.7265ZM131.428 49.8206L130.437 49.9559C130.636 51.4087 130.412 52.6276 129.82 53.6647L130.688 54.1606L131.557 54.6565C132.398 53.1832 132.668 51.5088 132.419 49.6853L131.428 49.8206ZM130.688 54.1606L129.818 53.6677C129.241 54.6864 128.385 55.4354 127.203 55.9202L127.583 56.8453L127.963 57.7705C129.534 57.1259 130.748 56.0851 131.559 54.6534L130.688 54.1606ZM117.222 55.4743L117.358 56.4651L120.766 55.9998L120.631 55.009L120.495 54.0181L117.087 54.4835L117.222 55.4743ZM120.631 55.009L120.766 55.9998C121.657 55.8782 122.499 55.5879 123.057 54.9595L122.31 54.2953L121.562 53.631C121.467 53.7378 121.19 53.9233 120.495 54.0181L120.631 55.009ZM122.31 54.2953L123.034 54.9845C123.656 54.3302 123.813 53.4759 123.695 52.6124L122.704 52.7477L121.713 52.883C121.776 53.3407 121.669 53.518 121.585 53.6061L122.31 54.2953ZM122.704 52.7477L123.695 52.6124C123.575 51.7379 123.202 50.9341 122.417 50.4647L121.904 51.3229L121.39 52.1811C121.485 52.2375 121.645 52.3836 121.713 52.883L122.704 52.7477ZM121.904 51.3229L122.479 50.5047C121.765 50.003 120.86 49.9312 119.954 50.0549L120.09 51.0457L120.225 52.0365C120.904 51.9438 121.209 52.0567 121.329 52.141L121.904 51.3229ZM120.09 51.0457L119.954 50.0549L116.546 50.5203L116.681 51.5111L116.817 52.5019L120.225 52.0365L120.09 51.0457ZM116.681 51.5111L115.69 51.6464L116.232 55.6096L117.222 55.4743L118.213 55.339L117.672 51.3758L116.681 51.5111ZM122.6 64.9944L122.735 65.9852C123.611 65.8656 124.441 65.5958 125.002 65.0159L124.284 64.3204L123.565 63.6248C123.466 63.7272 123.174 63.9068 122.464 64.0036L122.6 64.9944ZM124.284 64.3204L125.009 65.0095C125.639 64.3469 125.783 63.4724 125.664 62.5979L124.673 62.7332L123.682 62.8684C123.75 63.3679 123.635 63.5515 123.559 63.6312L124.284 64.3204ZM124.673 62.7332L125.664 62.5979C125.545 61.7307 125.176 60.9466 124.427 60.459C123.709 59.9915 122.823 59.9175 121.923 60.0404L122.059 61.0312L122.194 62.022C122.853 61.932 123.182 62.0353 123.336 62.1351C123.458 62.2148 123.616 62.3881 123.682 62.8684L124.673 62.7332ZM122.059 61.0312L121.923 60.0404L117.92 60.5869L118.056 61.5777L118.191 62.5685L122.194 62.022L122.059 61.0312ZM118.056 61.5777L117.065 61.713L117.606 65.6762L118.597 65.5409L119.588 65.4056L119.047 61.4424L118.056 61.5777ZM118.597 65.5409L118.732 66.5317L122.735 65.9852L122.6 64.9944L122.464 64.0036L118.462 64.5501L118.597 65.5409ZM154.701 64.8952L155.629 64.5234L155.36 63.8503L154.636 63.8972L154.701 64.8952ZM145.281 65.5058L145.216 64.5079L144.492 64.5548L144.312 65.257L145.281 65.5058ZM144.16 69.8674L144.225 70.8653L144.949 70.8184L145.129 70.1162L144.16 69.8674ZM134.86 70.4703L133.901 70.1882L133.497 71.5607L134.925 71.4682L134.86 70.4703ZM143.366 41.5394L143.302 40.5415L142.604 40.5868L142.407 41.2574L143.366 41.5394ZM153.585 40.877L154.5 40.4746L154.219 39.8339L153.52 39.8791L153.585 40.877ZM165.715 68.4701L165.78 69.4681L167.206 69.3756L166.631 68.0677L165.715 68.4701ZM156.375 69.0756L155.446 69.4474L155.716 70.1204L156.44 70.0735L156.375 69.0756ZM152.113 58.3689L152.178 59.3668L153.551 59.2777L153.042 57.999L152.113 58.3689ZM149.049 50.671L149.978 50.3011L148.84 47.4413L148.08 50.4242L149.049 50.671ZM147.004 58.7001L146.035 58.4533L145.695 59.787L147.069 59.698L147.004 58.7001ZM154.701 64.8952L154.636 63.8972L145.216 64.5079L145.281 65.5058L145.345 66.5037L154.766 65.8931L154.701 64.8952ZM145.281 65.5058L144.312 65.257L143.192 69.6186L144.16 69.8674L145.129 70.1162L146.249 65.7546L145.281 65.5058ZM144.16 69.8674L144.096 68.8695L134.795 69.4724L134.86 70.4703L134.925 71.4682L144.225 70.8653L144.16 69.8674ZM134.86 70.4703L135.819 70.7524L144.326 41.8215L143.366 41.5394L142.407 41.2574L133.901 70.1882L134.86 70.4703ZM143.366 41.5394L143.431 42.5373L153.65 41.8749L153.585 40.877L153.52 39.8791L143.302 40.5415L143.366 41.5394ZM153.585 40.877L152.669 41.2795L164.8 68.8726L165.715 68.4701L166.631 68.0677L154.5 40.4746L153.585 40.877ZM165.715 68.4701L165.651 67.4722L156.31 68.0777L156.375 69.0756L156.44 70.0735L165.78 69.4681L165.715 68.4701ZM156.375 69.0756L157.303 68.7039L155.629 64.5234L154.701 64.8952L153.773 65.2669L155.446 69.4474L156.375 69.0756ZM152.113 58.3689L153.042 57.999L149.978 50.3011L149.049 50.671L148.12 51.0408L151.184 58.7387L152.113 58.3689ZM149.049 50.671L148.08 50.4242L146.035 58.4533L147.004 58.7001L147.973 58.9469L150.018 50.9178L149.049 50.671ZM147.004 58.7001L147.069 59.698L152.178 59.3668L152.113 58.3689L152.049 57.371L146.939 57.7022L147.004 58.7001ZM183.898 68.5331L183.067 69.0889L183.363 69.5322L183.896 69.5331L183.898 68.5331ZM175.68 56.2386L176.511 55.6829L174.686 52.9518L174.68 56.2368L175.68 56.2386ZM175.658 68.5186L175.656 69.5186L176.656 69.5203L176.658 68.5203L175.658 68.5186ZM166.778 68.5028L165.778 68.5011L165.776 69.5011L166.776 69.5028L166.778 68.5028ZM166.828 40.1829L166.83 39.1829L165.83 39.1811L165.828 40.1811L166.828 40.1829ZM175.708 40.1986L176.708 40.2004L176.71 39.2004L175.71 39.1986L175.708 40.1986ZM175.687 52.1186L174.687 52.1168L174.681 55.361L176.513 52.683L175.687 52.1186ZM183.828 40.213L183.83 39.213L183.301 39.212L183.003 39.6485L183.828 40.213ZM193.868 40.2307L194.679 40.8163L195.822 39.2342L193.87 39.2307L193.868 40.2307ZM184.084 53.7734L183.274 53.1878L182.857 53.7651L183.266 54.348L184.084 53.7734ZM194.458 68.5518L194.456 69.5518L196.384 69.5552L195.277 67.9773L194.458 68.5518ZM183.898 68.5331L184.73 67.9774L176.511 55.6829L175.68 56.2386L174.849 56.7943L183.067 69.0889L183.898 68.5331ZM175.68 56.2386L174.68 56.2368L174.658 68.5168L175.658 68.5186L176.658 68.5203L176.68 56.2403L175.68 56.2386ZM175.658 68.5186L175.66 67.5186L166.78 67.5028L166.778 68.5028L166.776 69.5028L175.656 69.5186L175.658 68.5186ZM166.778 68.5028L167.778 68.5046L167.828 40.1847L166.828 40.1829L165.828 40.1811L165.778 68.5011L166.778 68.5028ZM166.828 40.1829L166.827 41.1829L175.706 41.1986L175.708 40.1986L175.71 39.1986L166.83 39.1829L166.828 40.1829ZM175.708 40.1986L174.708 40.1968L174.687 52.1168L175.687 52.1186L176.687 52.1204L176.708 40.2004L175.708 40.1986ZM175.687 52.1186L176.513 52.683L184.654 40.7774L183.828 40.213L183.003 39.6485L174.862 51.5541L175.687 52.1186ZM183.828 40.213L183.826 41.213L193.866 41.2307L193.868 40.2307L193.87 39.2307L183.83 39.213L183.828 40.213ZM193.868 40.2307L193.058 39.6451L183.274 53.1878L184.084 53.7734L184.895 54.3591L194.679 40.8163L193.868 40.2307ZM184.084 53.7734L183.266 54.348L193.64 69.1264L194.458 68.5518L195.277 67.9773L184.903 53.1989L184.084 53.7734ZM194.458 68.5518L194.46 67.5518L183.9 67.5331L183.898 68.5331L183.896 69.5331L194.456 69.5518L194.458 68.5518ZM229.455 56.7399L229.299 55.7521L229.134 57.6868L229.455 56.7399ZM233.156 59.5919L232.3 60.1087L232.306 60.1189L232.313 60.129L233.156 59.5919ZM231.148 69.4839L231.704 70.3151L231.706 70.3141L231.148 69.4839ZM209.178 69.3545L208.182 69.2576L208.085 70.2529L209.081 70.3498L209.178 69.3545ZM211.922 41.1677L212.018 40.1724L211.023 40.0755L210.926 41.0708L211.922 41.1677ZM234.817 50.7914L233.822 50.6945L234.817 50.7914ZM233.096 54.8437L232.365 54.1609L232.363 54.1635L233.096 54.8437ZM219.69 53.0162L218.695 52.9193L218.598 53.9146L219.593 54.0115L219.69 53.0162ZM224.912 53.0423L224.366 52.2046L224.352 52.2138L224.338 52.2236L224.912 53.0423ZM225.653 51.6274L226.648 51.7243L225.653 51.6274ZM225.203 50.0564L224.455 50.7198L224.479 50.7474L224.505 50.7731L225.203 50.0564ZM220.078 49.035L220.175 48.0397L219.179 47.9428L219.082 48.9381L220.078 49.035ZM224.521 63.2524L225.06 64.095L225.067 64.0902L224.521 63.2524ZM225.265 61.7977L224.27 61.7008L225.265 61.7977ZM223.114 59.5387L223.017 60.534L223.114 59.5387ZM219.093 59.1472L219.19 58.1519L218.195 58.055L218.098 59.0503L219.093 59.1472ZM218.706 63.1284L217.71 63.0315L217.613 64.0268L218.609 64.1237L218.706 63.1284ZM229.455 56.7399L229.134 57.6868C230.599 58.1843 231.629 58.9975 232.3 60.1087L233.156 59.5919L234.012 59.0752C233.068 57.5106 231.631 56.4225 229.777 55.793L229.455 56.7399ZM233.156 59.5919L232.313 60.129C233.024 61.2457 233.316 62.4872 233.18 63.8944L234.175 63.9913L235.17 64.0882C235.348 62.2574 234.962 60.566 234 59.0548L233.156 59.5919ZM234.175 63.9913L233.18 63.8944C232.963 66.1179 232.079 67.6544 230.591 68.6537L231.148 69.4839L231.706 70.3141C233.772 68.9266 234.906 66.8014 235.17 64.0882L234.175 63.9913ZM231.148 69.4839L230.592 68.6527C229.107 69.6462 226.969 70.0818 224.045 69.7971L223.948 70.7924L223.851 71.7877C227.031 72.0972 229.693 71.6605 231.704 70.3151L231.148 69.4839ZM223.948 70.7924L224.045 69.7971L209.274 68.3592L209.178 69.3545L209.081 70.3498L223.851 71.7877L223.948 70.7924ZM209.178 69.3545L210.173 69.4514L212.917 41.2646L211.922 41.1677L210.926 41.0708L208.182 69.2576L209.178 69.3545ZM211.922 41.1677L211.825 42.163L226.197 43.5622L226.294 42.5669L226.39 41.5716L212.018 40.1724L211.922 41.1677ZM226.294 42.5669L226.197 43.5622C228.929 43.8281 230.889 44.6197 232.201 45.8315L232.879 45.0969L233.558 44.3623C231.822 42.7588 229.391 41.8637 226.39 41.5716L226.294 42.5669ZM232.879 45.0969L232.201 45.8315C233.457 46.9917 234.029 48.5619 233.822 50.6945L234.817 50.7914L235.812 50.8883C236.07 48.2435 235.35 46.0174 233.558 44.3623L232.879 45.0969ZM234.817 50.7914L233.822 50.6945C233.679 52.1539 233.181 53.2884 232.365 54.1609L233.096 54.8437L233.827 55.5266C234.985 54.2871 235.634 52.72 235.812 50.8883L234.817 50.7914ZM233.096 54.8437L232.363 54.1635C231.567 55.0216 230.561 55.5529 229.299 55.7521L229.455 56.7399L229.611 57.7277C231.289 57.4628 232.71 56.73 233.829 55.524L233.096 54.8437ZM219.69 53.0162L219.593 54.0115L223.017 54.3448L223.114 53.3495L223.211 52.3542L219.787 52.0209L219.69 53.0162ZM223.114 53.3495L223.017 54.3448C223.912 54.4319 224.798 54.3437 225.486 53.861L224.912 53.0423L224.338 52.2236C224.221 52.3056 223.909 52.4222 223.211 52.3542L223.114 53.3495ZM224.912 53.0423L225.458 53.88C226.215 53.387 226.564 52.5916 226.648 51.7243L225.653 51.6274L224.657 51.5305C224.613 51.9902 224.468 52.1382 224.366 52.2046L224.912 53.0423ZM225.653 51.6274L226.648 51.7243C226.733 50.8458 226.556 49.9776 225.9 49.3398L225.203 50.0564L224.505 50.7731C224.584 50.8498 224.706 51.0288 224.657 51.5305L225.653 51.6274ZM225.203 50.0564L225.951 49.393C225.372 48.7402 224.508 48.4616 223.598 48.373L223.501 49.3683L223.405 50.3636C224.087 50.4301 224.357 50.6102 224.455 50.7198L225.203 50.0564ZM223.501 49.3683L223.598 48.373L220.175 48.0397L220.078 49.035L219.981 50.0303L223.405 50.3636L223.501 49.3683ZM220.078 49.035L219.082 48.9381L218.695 52.9193L219.69 53.0162L220.685 53.1131L221.073 49.1319L220.078 49.035ZM222.727 63.5198L222.63 64.5151C223.51 64.6008 224.38 64.5297 225.06 64.0949L224.521 63.2524L223.982 62.41C223.862 62.4867 223.536 62.5939 222.824 62.5245L222.727 63.5198ZM224.521 63.2524L225.067 64.0902C225.833 63.5907 226.175 62.7731 226.261 61.8946L225.265 61.7977L224.27 61.7008C224.221 62.2025 224.067 62.3547 223.975 62.4147L224.521 63.2524ZM225.265 61.7977L226.261 61.8946C226.346 61.0235 226.167 60.1754 225.551 59.5282C224.96 58.9076 224.115 58.6313 223.211 58.5434L223.114 59.5387L223.017 60.534C223.68 60.5984 223.976 60.7749 224.102 60.9074C224.203 61.0132 224.317 61.2183 224.27 61.7008L225.265 61.7977ZM223.114 59.5387L223.211 58.5434L219.19 58.1519L219.093 59.1472L218.996 60.1425L223.017 60.534L223.114 59.5387ZM219.093 59.1472L218.098 59.0503L217.71 63.0315L218.706 63.1284L219.701 63.2253L220.088 59.2441L219.093 59.1472ZM218.706 63.1284L218.609 64.1237L222.63 64.5151L222.727 63.5198L222.824 62.5245L218.803 62.1331L218.706 63.1284ZM241.926 71.5347L241.292 72.3076L241.296 72.3109L241.926 71.5347ZM237.614 65.5075L236.679 65.861V65.861L237.614 65.5075ZM240.175 50.7684L239.414 50.1201L240.175 50.7684ZM246.261 46.5885L246.589 47.5332L246.593 47.5319L246.261 46.5885ZM260.724 49.1016L260.09 49.8746L260.097 49.8804L260.724 49.1016ZM265.003 55.0825L264.065 55.4276L264.068 55.436L265.003 55.0825ZM265.654 62.7877L266.639 62.9588L265.654 62.7877ZM262.442 69.8217L261.681 69.1734L261.675 69.1802L262.442 69.8217ZM256.35 74.041L256.018 73.0976L256.014 73.0993L256.35 74.041ZM254.581 65.5324L255.217 66.3037L255.226 66.2962L254.581 65.5324ZM256.787 61.2469L255.802 61.0757L256.787 61.2469ZM256.156 56.4683L255.29 56.9695L255.296 56.9795L256.156 56.4683ZM252.43 54.0752L252.259 55.0604L252.43 54.0752ZM248.077 55.0645L248.713 55.8357L248.722 55.8282L248.077 55.0645ZM246.502 64.1286L245.636 64.6299L245.642 64.6398L246.502 64.1286ZM248.856 74.6469L249.027 73.6617C246.561 73.2332 244.411 72.2647 242.557 70.7585L241.926 71.5347L241.296 72.3109C243.426 74.0413 245.896 75.1476 248.684 75.6322L248.856 74.6469ZM241.926 71.5347L242.561 70.7617C240.731 69.2603 239.397 67.3964 238.55 65.1541L237.614 65.5075L236.679 65.861C237.649 68.4273 239.189 70.5816 241.292 72.3076L241.926 71.5347ZM237.614 65.5075L238.55 65.1541C237.71 62.9302 237.502 60.5442 237.949 57.9736L236.964 57.8024L235.979 57.6312C235.476 60.5254 235.702 63.2762 236.679 65.861L237.614 65.5075ZM236.964 57.8024L237.949 57.9736C238.396 55.403 239.396 53.2268 240.937 51.4167L240.175 50.7684L239.414 50.1201C237.623 52.2239 236.482 54.737 235.979 57.6312L236.964 57.8024ZM240.175 50.7684L240.937 51.4167C242.49 49.5931 244.369 48.3035 246.589 47.5332L246.261 46.5885L245.933 45.6437C243.371 46.5328 241.194 48.0297 239.414 50.1201L240.175 50.7684ZM246.261 46.5885L246.593 47.5319C248.846 46.7395 251.197 46.553 253.663 46.9815L253.834 45.9962L254.005 45.011C251.216 44.5264 248.518 44.7348 245.929 45.6451L246.261 46.5885ZM253.834 45.9962L253.663 46.9815C256.129 47.4099 258.264 48.3758 260.09 49.8746L260.724 49.1016L261.359 48.3287C259.252 46.6 256.794 45.4956 254.005 45.011L253.834 45.9962ZM260.724 49.1016L260.097 49.8804C261.925 51.3529 263.245 53.196 264.065 55.4276L265.003 55.0825L265.942 54.7375C264.998 52.1695 263.465 50.0253 261.352 48.3229L260.724 49.1016ZM265.003 55.0825L264.068 55.436C264.908 57.6599 265.115 60.0458 264.669 62.6165L265.654 62.7877L266.639 62.9588C267.142 60.0647 266.916 57.3139 265.939 54.7291L265.003 55.0825ZM265.654 62.7877L264.669 62.6165C264.222 65.1871 263.222 67.3633 261.681 69.1734L262.442 69.8217L263.204 70.47C264.995 68.3661 266.136 65.853 266.639 62.9588L265.654 62.7877ZM262.442 69.8217L261.675 69.1802C260.151 71.0032 258.271 72.3057 256.018 73.0976L256.35 74.041L256.682 74.9844C259.272 74.0736 261.454 72.5632 263.21 70.4631L262.442 69.8217ZM256.35 74.041L256.014 73.0993C253.787 73.8949 251.464 74.0852 249.027 73.6617L248.856 74.6469L248.684 75.6322C251.449 76.1125 254.122 75.899 256.687 74.9827L256.35 74.041ZM250.273 66.4892L250.102 67.4744C252.063 67.8151 253.811 67.4647 255.217 66.3036L254.581 65.5324L253.944 64.7613C253.075 65.4784 251.952 65.7659 250.444 65.5039L250.273 66.4892ZM254.581 65.5324L255.226 66.2962C256.593 65.1405 257.415 63.474 257.772 61.4181L256.787 61.2469L255.802 61.0757C255.501 62.8031 254.852 63.9936 253.935 64.7687L254.581 65.5324ZM256.787 61.2469L257.772 61.4181C258.133 59.3412 257.926 57.488 257.015 55.9571L256.156 56.4683L255.296 56.9795C255.894 57.9842 256.107 59.3167 255.802 61.0757L256.787 61.2469ZM256.156 56.4683L257.021 55.9671C256.096 54.3705 254.57 53.432 252.601 53.0899L252.43 54.0752L252.259 55.0604C253.759 55.321 254.716 55.9778 255.29 56.9695L256.156 56.4683ZM252.43 54.0752L252.601 53.0899C250.612 52.7443 248.844 53.1067 247.431 54.3007L248.077 55.0645L248.722 55.8282C249.594 55.0914 250.728 54.7943 252.259 55.0604L252.43 54.0752ZM248.077 55.0645L247.44 54.2933C246.066 55.4273 245.246 57.1019 244.885 59.1788L245.87 59.35L246.856 59.5212C247.161 57.7623 247.812 56.5799 248.713 55.8356L248.077 55.0645ZM245.87 59.35L244.885 59.1788C244.528 61.2348 244.739 63.0807 245.636 64.6298L246.502 64.1286L247.367 63.6274C246.765 62.5884 246.555 61.2486 246.856 59.5212L245.87 59.35ZM246.502 64.1286L245.642 64.6398C246.577 66.2113 248.121 67.1301 250.102 67.4744L250.273 66.4892L250.444 65.5039C248.905 65.2365 247.935 64.5816 247.361 63.6174L246.502 64.1286ZM287.134 68.2013L287.143 67.2013L286.661 69.0823L287.134 68.2013ZM290.315 71.6242L289.385 71.9928L289.389 72.004L289.394 72.015L290.315 71.6242ZM286.704 81.0501L287.116 81.9615L287.117 81.9608L286.704 81.0501ZM265.055 77.3018L264.089 77.0422L263.83 78.0079L264.795 78.2675L265.055 77.3018ZM272.406 49.9526L272.666 48.9869L271.7 48.7273L271.441 49.693L272.406 49.9526ZM286.351 53.701L286.092 54.6668L286.351 53.701ZM293.403 63.2177L292.437 62.9581L293.403 63.2177ZM291.038 66.9311L290.43 66.1372L290.427 66.1393L291.038 66.9311ZM278.116 62.9193L277.15 62.6597L276.891 63.6254L277.857 63.885L278.116 62.9193ZM283.263 63.8056L282.862 62.8893L282.846 62.8961L282.831 62.9034L283.263 63.8056ZM284.226 62.5321L283.26 62.2725L284.226 62.5321ZM284.041 60.9084L283.194 61.4395L283.214 61.4707L283.235 61.5004L284.041 60.9084ZM282.477 59.9494L282.736 58.9837L282.477 59.9494ZM279.155 59.0564L279.414 58.0907L278.448 57.8311L278.189 58.7968L279.155 59.0564ZM281.194 73.8117L281.587 74.7315L281.595 74.7279L281.194 73.8117ZM280.419 69.9169L280.159 70.8826L280.419 69.9169ZM276.517 68.8681L276.777 67.9024L275.811 67.6428L275.551 68.6085L276.517 68.8681ZM275.479 72.731L274.513 72.4714L274.253 73.4371L275.219 73.6967L275.479 72.731ZM287.134 68.2013L286.661 69.0823C288.025 69.8145 288.907 70.7864 289.385 71.9928L290.315 71.6242L291.244 71.2557C290.571 69.5568 289.332 68.2467 287.607 67.3203L287.134 68.2013ZM290.315 71.6242L289.394 72.015C289.911 73.2336 289.996 74.5063 289.629 75.8717L290.594 76.1313L291.56 76.3909C292.037 74.6146 291.935 72.8825 291.235 71.2335L290.315 71.6242ZM290.594 76.1313L289.629 75.8717C289.049 78.0291 287.924 79.399 286.291 80.1394L286.704 81.0501L287.117 81.9608C289.384 80.9328 290.852 79.0235 291.56 76.3909L290.594 76.1313ZM286.704 81.0501L286.293 80.1387C284.664 80.8738 282.483 80.9511 279.646 80.1883L279.386 81.1541L279.127 82.1198C282.212 82.9491 284.91 82.9571 287.116 81.9615L286.704 81.0501ZM279.386 81.1541L279.646 80.1883L265.315 76.3361L265.055 77.3018L264.795 78.2675L279.127 82.1198L279.386 81.1541ZM265.055 77.3018L266.021 77.5614L273.372 50.2122L272.406 49.9526L271.441 49.693L264.089 77.0422L265.055 77.3018ZM272.406 49.9526L272.147 50.9183L286.092 54.6668L286.351 53.701L286.611 52.7353L272.666 48.9869L272.406 49.9526ZM286.351 53.701L286.092 54.6668C288.743 55.3793 290.546 56.4831 291.64 57.8945L292.43 57.2818L293.221 56.669C291.772 54.8013 289.523 53.518 286.611 52.7353L286.351 53.701ZM292.43 57.2818L291.64 57.8945C292.688 59.2459 292.993 60.8888 292.437 62.9581L293.403 63.2177L294.368 63.4773C295.058 60.9111 294.715 58.5968 293.221 56.669L292.43 57.2818ZM293.403 63.2177L292.437 62.9581C292.056 64.3742 291.378 65.411 290.43 66.1372L291.038 66.9311L291.646 67.7249C292.993 66.6933 293.891 65.2545 294.368 63.4773L293.403 63.2177ZM291.038 66.9311L290.427 66.1393C289.5 66.8544 288.42 67.2127 287.143 67.2013L287.134 68.2013L287.125 69.2013C288.823 69.2164 290.346 68.7279 291.649 67.7228L291.038 66.9311ZM278.116 62.9193L277.857 63.885L281.179 64.778L281.438 63.8123L281.698 62.8465L278.376 61.9536L278.116 62.9193ZM281.438 63.8123L281.179 64.778C282.047 65.0113 282.936 65.0704 283.694 64.7078L283.263 63.8056L282.831 62.9034C282.702 62.9651 282.375 63.0286 281.698 62.8465L281.438 63.8123ZM283.263 63.8056L283.663 64.7219C284.49 64.3602 284.966 63.6332 285.192 62.7917L284.226 62.5321L283.26 62.2725C283.141 62.7186 282.973 62.8406 282.862 62.8893L283.263 63.8056ZM284.226 62.5321L285.192 62.7917C285.421 61.9393 285.389 61.0536 284.847 60.3165L284.041 60.9084L283.235 61.5004C283.3 61.589 283.391 61.7857 283.26 62.2725L284.226 62.5321ZM284.041 60.9084L284.889 60.3774C284.425 59.6381 283.619 59.221 282.736 58.9837L282.477 59.9494L282.217 60.9151C282.879 61.0931 283.116 61.3153 283.194 61.4395L284.041 60.9084ZM282.477 59.9494L282.736 58.9837L279.414 58.0907L279.155 59.0564L278.895 60.0221L282.217 60.9151L282.477 59.9494ZM279.155 59.0564L278.189 58.7968L277.15 62.6597L278.116 62.9193L279.082 63.1789L280.12 59.316L279.155 59.0564ZM279.38 73.7797L279.121 74.7455C279.975 74.975 280.844 75.0482 281.587 74.7314L281.194 73.8117L280.802 72.8919C280.671 72.9479 280.331 72.9998 279.64 72.814L279.38 73.7797ZM281.194 73.8117L281.595 74.7279C282.433 74.3616 282.905 73.6115 283.134 72.7591L282.168 72.4995L281.202 72.24C281.072 72.7267 280.894 72.8514 280.794 72.8954L281.194 73.8117ZM282.168 72.4995L283.134 72.7591C283.361 71.9139 283.325 71.0479 282.823 70.308C282.343 69.5985 281.555 69.1868 280.678 68.9511L280.419 69.9169L280.159 70.8826C280.802 71.0553 281.065 71.2782 281.168 71.4297C281.25 71.5506 281.328 71.7718 281.202 72.24L282.168 72.4995ZM280.419 69.9169L280.678 68.9511L276.777 67.9024L276.517 68.8681L276.258 69.8338L280.159 70.8826L280.419 69.9169ZM276.517 68.8681L275.551 68.6085L274.513 72.4714L275.479 72.731L276.445 72.9906L277.483 69.1277L276.517 68.8681ZM275.479 72.731L275.219 73.6967L279.121 74.7455L279.38 73.7797L279.64 72.814L275.738 71.7653L275.479 72.731ZM296.217 85.0242L295.431 85.6418L295.434 85.6459L296.217 85.0242ZM293.309 78.2079L292.319 78.3509V78.3509L293.309 78.2079ZM298.994 64.37L299.597 65.1675L298.994 64.37ZM305.839 61.6035L305.955 62.5968L305.959 62.5963L305.839 61.6035ZM319.417 67.1819L318.631 67.7996L318.637 67.8067L319.417 67.1819ZM322.304 73.946L321.313 74.0802L321.314 74.089L322.304 73.946ZM316.619 87.7838L316.015 86.9863L316.008 86.9918L316.619 87.7838ZM309.759 90.5874L309.639 89.5946L309.634 89.5952L309.759 90.5874ZM309.869 81.8975L310.324 82.788L310.335 82.7826L309.869 81.8975ZM313.365 73.3876L312.412 73.69L312.416 73.7011L313.365 73.3876ZM305.78 70.2716L306.235 71.1622L306.246 71.1568L305.78 70.2716ZM302.284 78.7815L301.331 79.0839L301.335 79.0949L302.284 78.7815ZM302.311 89.5599L302.691 88.635C300.376 87.684 298.486 86.2738 297 84.4025L296.217 85.0242L295.434 85.6459C297.14 87.7956 299.312 89.4093 301.931 90.4849L302.311 89.5599ZM296.217 85.0242L297.003 84.4065C295.542 82.5453 294.642 80.4373 294.299 78.0648L293.309 78.2079L292.319 78.3509C292.712 81.0661 293.75 83.5023 295.431 85.6418L296.217 85.0242ZM293.309 78.2079L294.299 78.0648C293.959 75.7119 294.272 73.3376 295.264 70.9242L294.339 70.5442L293.414 70.1642C292.297 72.8813 291.924 75.6161 292.319 78.3509L293.309 78.2079ZM294.339 70.5442L295.264 70.9242C296.255 68.5107 297.701 66.6019 299.597 65.1675L298.994 64.37L298.391 63.5726C296.187 65.2397 294.53 67.447 293.414 70.1642L294.339 70.5442ZM298.994 64.37L299.597 65.1675C301.507 63.7225 303.621 62.8693 305.955 62.5968L305.839 61.6035L305.723 60.6103C303.029 60.9249 300.58 61.9161 298.391 63.5726L298.994 64.37ZM305.839 61.6035L305.959 62.5963C308.33 62.3095 310.666 62.6353 312.981 63.5863L313.361 62.6613L313.741 61.7363C311.123 60.6607 308.443 60.2813 305.719 60.6107L305.839 61.6035ZM313.361 62.6613L312.981 63.5863C315.296 64.5373 317.172 65.9417 318.631 67.7996L319.417 67.1819L320.204 66.5642C318.521 64.4214 316.359 62.812 313.741 61.7363L313.361 62.6613ZM319.417 67.1819L318.637 67.8067C320.103 69.6394 320.994 71.7241 321.313 74.0801L322.304 73.946L323.295 73.8119C322.928 71.1006 321.894 68.6758 320.198 66.5571L319.417 67.1819ZM322.304 73.946L321.314 74.089C321.654 76.442 321.341 78.8163 320.349 81.2297L321.274 81.6097L322.199 81.9897C323.315 79.2725 323.688 76.5378 323.293 73.803L322.304 73.946ZM321.274 81.6097L320.349 81.2297C319.358 83.6431 317.911 85.552 316.015 86.9864L316.619 87.7838L317.222 88.5813C319.426 86.9141 321.083 84.7069 322.199 81.9897L321.274 81.6097ZM316.619 87.7838L316.008 86.9918C314.126 88.4425 312.009 89.308 309.639 89.5946L309.759 90.5874L309.879 91.5801C312.605 91.2505 315.061 90.247 317.229 88.5759L316.619 87.7838ZM309.759 90.5874L309.634 89.5952C307.288 89.891 304.979 89.5751 302.691 88.635L302.311 89.5599L301.931 90.4849C304.526 91.5512 307.182 91.9202 309.884 91.5795L309.759 90.5874ZM305.457 81.9011L305.077 82.826C306.918 83.5822 308.7 83.6178 310.324 82.788L309.869 81.8975L309.414 81.007C308.411 81.5195 307.252 81.5575 305.837 80.9761L305.457 81.9011ZM309.869 81.8975L310.335 82.7826C311.919 81.9496 313.081 80.4999 313.874 78.5697L312.949 78.1897L312.024 77.8097C311.358 79.4315 310.467 80.4536 309.404 81.0123L309.869 81.8975ZM312.949 78.1897L313.874 78.5697C314.675 76.6198 314.873 74.7656 314.315 73.0741L313.365 73.3876L312.416 73.7011C312.782 74.8112 312.703 76.1583 312.024 77.8097L312.949 78.1897ZM313.365 73.3876L314.318 73.0852C313.76 71.3266 312.473 70.0804 310.625 69.3212L310.245 70.2462L309.865 71.1712C311.273 71.7496 312.066 72.5977 312.412 73.69L313.365 73.3876ZM310.245 70.2462L310.625 69.3212C308.757 68.554 306.952 68.5258 305.315 69.3865L305.78 70.2716L306.246 71.1568C307.256 70.6257 308.427 70.5806 309.865 71.1712L310.245 70.2462ZM305.78 70.2716L305.325 69.3811C303.739 70.1916 302.576 71.6495 301.775 73.5993L302.7 73.9793L303.625 74.3593C304.304 72.7079 305.194 71.694 306.235 71.1621L305.78 70.2716ZM302.7 73.9793L301.775 73.5993C300.982 75.5296 300.79 77.3775 301.331 79.0839L302.284 78.7815L303.238 78.4791C302.874 77.3346 302.959 75.9811 303.625 74.3593L302.7 73.9793ZM302.284 78.7815L301.335 79.0949C301.908 80.8312 303.217 82.0618 305.077 82.826L305.457 81.9011L305.837 80.9761C304.392 80.3824 303.586 79.5334 303.234 78.468L302.284 78.7815ZM342.626 75.9281L343.444 76.5027L344.051 75.6382L343.155 75.0795L342.626 75.9281ZM331.715 91.4688L331.186 92.3175L331.989 92.8182L332.533 92.0434L331.715 91.4688ZM325.265 87.449L324.388 86.9674L323.932 87.797L324.736 88.2977L325.265 87.449ZM334.41 70.8081L334.939 69.9595L334.043 69.4007L333.534 70.3265L334.41 70.8081ZM322.375 99.2695L321.846 100.118L322.375 99.2695ZM319.874 96.2496L320.833 95.965V95.965L319.874 96.2496ZM320.336 92.8612L319.488 92.3323L320.336 92.8612ZM323.196 90.9199L323.363 91.9059L323.37 91.9046L323.378 91.9032L323.196 90.9199ZM327.03 91.8012L326.501 92.6499L327.03 91.8012ZM329.476 94.834L328.513 95.1034L328.515 95.111L328.517 95.1186L329.476 94.834ZM326.154 100.164L325.988 99.1776V99.1776L326.154 100.164ZM342.626 75.9281L341.807 75.3535L330.896 90.8942L331.715 91.4688L332.533 92.0434L343.444 76.5027L342.626 75.9281ZM331.715 91.4688L332.244 90.6202L325.794 86.6003L325.265 87.449L324.736 88.2977L331.186 92.3175L331.715 91.4688ZM325.265 87.449L326.141 87.9306L335.287 71.2898L334.41 70.8081L333.534 70.3265L324.388 86.9674L325.265 87.449ZM334.41 70.8081L333.882 71.6568L342.097 76.7768L342.626 75.9281L343.155 75.0795L334.939 69.9595L334.41 70.8081ZM322.375 99.2695L322.904 98.4209C321.747 97.6997 321.102 96.8734 320.833 95.965L319.874 96.2496L318.915 96.5342C319.355 98.0162 320.378 99.2032 321.846 100.118L322.375 99.2695ZM319.874 96.2496L320.833 95.965C320.56 95.0458 320.672 94.2124 321.185 93.3902L320.336 92.8612L319.488 92.3323C318.674 93.6375 318.479 95.0629 318.915 96.5342L319.874 96.2496ZM320.336 92.8612L321.185 93.3902C321.715 92.5394 322.424 92.0647 323.363 91.9059L323.196 90.9199L323.029 89.9339C321.509 90.191 320.311 91.0105 319.488 92.3323L320.336 92.8612ZM323.196 90.9199L323.378 91.9032C324.324 91.7278 325.351 91.933 326.501 92.6499L327.03 91.8012L327.559 90.9526C326.084 90.0333 324.554 89.651 323.013 89.9367L323.196 90.9199ZM327.03 91.8012L326.501 92.6499C327.624 93.3499 328.253 94.1728 328.513 95.1034L329.476 94.834L330.439 94.5645C330.018 93.0594 329.016 91.8605 327.559 90.9526L327.03 91.8012ZM329.476 94.834L328.517 95.1186C328.788 96.0312 328.674 96.8766 328.144 97.7273L328.993 98.2563L329.841 98.7852C330.665 97.4633 330.873 96.0273 330.435 94.5494L329.476 94.834ZM328.993 98.2563L328.144 97.7273C327.632 98.5495 326.933 99.0177 325.988 99.1776L326.154 100.164L326.321 101.15C327.834 100.894 329.028 100.09 329.841 98.7852L328.993 98.2563ZM326.154 100.164L325.988 99.1776C325.049 99.3363 324.034 99.1252 322.904 98.4209L322.375 99.2695L321.846 100.118C323.296 101.022 324.801 101.407 326.321 101.15L326.154 100.164Z" fill="url(#paint0_linear_285_1335)" mask="url(#path-1-outside-1_285_1335)"/>
</g>
</g>
<defs>
<filter id="filter0_d_285_1335" x="3.77246" y="29.1812" width="350.279" height="85.3555" filterUnits="userSpaceOnUse" color-interpolation-filters="sRGB">
<feFlood flood-opacity="0" result="BackgroundImageFix"/>
<feColorMatrix in="SourceAlpha" type="matrix" values="0 0 0 0 0 0 0 0 0 0 0 0 0 0 0 0 0 0 127 0" result="hardAlpha"/>
<feOffset/>
<feGaussianBlur stdDeviation="5"/>
<feComposite in2="hardAlpha" operator="out"/>
<feColorMatrix type="matrix" values="0 0 0 0 0.937255 0 0 0 0 0.266667 0 0 0 0 0.266667 0 0 0 1 0"/>
<feBlend mode="normal" in2="BackgroundImageFix" result="effect1_dropShadow_285_1335"/>
<feBlend mode="normal" in="SourceGraphic" in2="effect1_dropShadow_285_1335" result="shape"/>
</filter>
<linearGradient id="paint0_linear_285_1335" x1="-3.23717e-07" y1="71" x2="358" y2="81" gradientUnits="userSpaceOnUse">
<stop offset="0.2" stop-color="#FF2D55"/>
<stop offset="0.8" stop-color="#FF383C"/>
</linearGradient>
<clipPath id="clip0_285_1335">
<rect width="358" height="144" fill="white"/>
</clipPath>
</defs>
</svg>
